<?xml version="1.0" encoding="UTF-8"?>
<svg width="194px" height="194px" viewBox="0 0 194 194" version="1.1" xmlns="http://www.w3.org/2000/svg" xmlns:xlink="http://www.w3.org/1999/xlink">
    <!-- Generator: Sketch 48.2 (47327) - http://www.bohemiancoding.com/sketch -->
    <title>announcement</title>
    <desc>Created with Sketch.</desc>
    <defs></defs>
    <g id="Announcement" stroke="none" stroke-width="1" fill="none" fill-rule="evenodd" transform="translate(-729.000000, -241.000000)">
        <g id="announcement" transform="translate(714.000000, 226.000000)">
            <g id="Group-2" fill="#9B9B9B">
                <circle id="Oval-Copy" opacity="0.0875226449" cx="112.5" cy="112.5" r="70.5"></circle>
                <circle id="Oval" opacity="0.0577445652" cx="112" cy="112" r="97"></circle>
                <circle id="Oval-Copy-2" opacity="1.49011614e-09" cx="113" cy="113" r="113"></circle>
            </g>
            <g id="megaphone-(1)" transform="translate(74.000000, 72.000000)" fill-rule="nonzero">
                <path d="M46.889907,59.8447783 L48.1368239,61.9904745 L48.6233279,62.827383 C51.3840264,67.5771958 49.8614399,73.743795 45.229806,76.5755625 L38.6628816,80.5885872 C34.030127,83.4190416 28.0155023,81.8579832 25.2548039,77.1081705 L25.0785482,76.8040341 L23.5202624,74.1265505 C22.4779366,72.3329173 23.0510477,70.0124206 24.7991966,68.9447427 C26.5486261,67.8760799 28.8109741,68.462359 29.8532999,70.2559923 L31.3257791,72.790517 L31.5867207,73.238597 C32.2664497,74.4086933 33.7478938,74.7911206 34.8878725,74.0952014 L41.454797,70.0823408 C42.5960564,69.3854368 42.9714602,67.8667244 42.2915711,66.6967923 L41.8886324,66.0049764 L40.5570297,63.7151724 C39.5147039,61.9215391 40.0889356,59.6023555 41.8359638,58.5333645 C43.5852333,57.4647018 45.8485418,58.0524581 46.889907,59.8447783 Z" id="Shape" fill="#009AE0"></path>
                <g id="Group" transform="translate(23.000000, 58.000000)" fill="#2D2D45">
                    <path d="M6.88591772,12.3578621 L8.34129747,14.8871552 L2.16677215,18.8922241 L0.626582278,16.2202672 C-0.403639241,14.4303362 0.162816456,12.1146293 1.89066456,11.0491552 C3.61962025,9.98269828 5.8556962,10.5677672 6.88591772,12.3578621 Z" id="Shape"></path>
                    <path d="M23.725,1.96797414 L24.9574367,4.10924138 L18.7816456,8.1152931 L17.4655063,5.83021552 C16.4352848,4.04028448 17.0028481,1.72588793 18.7295886,0.659103448 C20.4587025,-0.407189655 22.6957278,0.179353448 23.725,1.96797414 Z" id="Shape"></path>
                </g>
                <path d="M77.3878534,41.8893519 L75.8005516,42.8772258 L73.1495626,44.525515 L67.8493423,47.8217699 L16.4371571,79.802267 C16.1629665,79.9727072 15.8457937,80.0312454 15.5452386,79.9845118 C15.2726458,79.9444083 15.0150727,79.8173058 14.8102287,79.6101579 L13.0776825,77.8583757 L2.14520908,66.7993304 L2.14361123,66.7993304 L0.386138637,65.0207046 C0.181294573,64.8117779 0.0558635346,64.550943 0.0162369137,64.2752309 C-0.0316985149,63.9710582 0.0261435689,63.6534638 0.194556708,63.375973 L31.73511,11.2728615 L34.9921626,5.90884694 L36.6206889,3.22595027 L37.596814,1.61954345 C38.0493244,0.899134509 39.0470205,0.785453817 39.6465329,1.39218206 L77.612351,39.8149623 C78.2120232,40.4215288 78.0996945,41.431395 77.3878534,41.8893519 Z" id="Shape" fill="#009AE0"></path>
                <path d="M78.3786688,42.0092299 L76.7675513,43 L37,3.23247623 L37.9907708,1.6213598 C38.4500707,0.898838795 39.462736,0.784824818 40.0712435,1.39333185 L78.6065348,39.9287586 C79.2152044,40.5371035 79.1011904,41.5499303 78.3786688,42.0092299 Z" id="Shape" fill="#2D2D45"></path>
                <polygon id="Shape" fill="#2D2D45" points="35.3028901 5 74 43.6971226 68.6241141 47 32 10.3760272"></polygon>
                <path d="M15,78 C14.7366959,77.9617079 14.4878997,77.8403467 14.2900358,77.6425557 L12.6165267,75.9699016 L12.5782504,73.4257936 L4.60272873,65.4468337 L2.05642672,65.4100856 L2.05488332,65.4100856 L0.357297197,63.7118006 C0.159433263,63.5123111 0.0382763304,63.2632581 0,63 L1.01308804,63 L5.12439807,63.0606806 C5.4355476,63.0654671 5.73218916,63.1916149 5.9524324,63.4102503 L14.6138412,72.0752254 C14.8339301,72.2955594 14.9600259,72.5938671 14.9648105,72.9051447 L15,78 Z" id="Shape" fill="#2D2D45"></path>
                <g id="Group" transform="translate(52.000000, 0.000000)" fill="#2D2D45">
                    <path d="M13.3272,14.3188118 C13.0120941,14.3188118 12.6969882,14.2030353 12.4563706,13.9716353 C11.9754529,13.5083765 11.9754529,12.7577412 12.4563706,12.2947882 L16.8568941,8.05724706 C17.3379706,7.59429412 18.1174765,7.59429412 18.5982353,8.05724706 C19.0791529,8.52050588 19.0791529,9.27114118 18.5982353,9.73409412 L14.1977118,13.9716353 C13.9575706,14.2030353 13.6423059,14.3188118 13.3272,14.3188118 Z" id="Shape"></path>
                    <path d="M1.27011176,8.3018 C0.589870588,8.3018 0.0387529412,7.77109412 0.0387529412,7.11604706 L0.0387529412,1.18575294 C0.0387529412,0.530705882 0.589870588,0 1.27011176,0 C1.95035294,0 2.50147059,0.530705882 2.50147059,1.18575294 L2.50147059,7.1162 C2.50131176,7.77094118 1.95019412,8.3018 1.27011176,8.3018 Z" id="Shape"></path>
                    <path d="M25.7341765,25.9296471 L19.5757941,25.9296471 C18.8955529,25.9296471 18.3444353,25.3989412 18.3444353,24.7438941 C18.3444353,24.0888471 18.8955529,23.5581412 19.5757941,23.5581412 L25.7341765,23.5581412 C26.4144176,23.5581412 26.9655353,24.0888471 26.9655353,24.7438941 C26.9655353,25.3989412 26.4141,25.9296471 25.7341765,25.9296471 Z" id="Shape"></path>
                </g>
            </g>
        </g>
    </g>
</svg>