<?xml version="1.0" encoding="utf-8"?>
<!-- Generator: Adobe Illustrator 24.0.2, SVG Export Plug-In . SVG Version: 6.00 Build 0)  -->
<svg version="1.1" id="Layer_1" xmlns="http://www.w3.org/2000/svg" xmlns:xlink="http://www.w3.org/1999/xlink" x="0px" y="0px"
	 viewBox="0 0 25.5 20.5" style="enable-background:new 0 0 25.5 20.5;" xml:space="preserve">
<style type="text/css">
	.st0{fill:#FFFFFF;}
	.st1{fill:url(#SVGID_1_);}
</style>
<g>
	<path class="st0" d="M18.25,20.25h-11c-3.87,0-7-3.13-7-7v-6c0-3.87,3.13-7,7-7h11c3.87,0,7,3.13,7,7v6
		C25.25,17.12,22.12,20.25,18.25,20.25z"/>
	<linearGradient id="SVGID_1_" gradientUnits="userSpaceOnUse" x1="6.25" y1="10.6192" x2="19.25" y2="10.6192">
		<stop  offset="0" style="stop-color:#FF5F6D"/>
		<stop  offset="1" style="stop-color:#FFB045"/>
	</linearGradient>
	<path class="st1" d="M12.75,12.41c0.05-0.06,0.08-0.11,0.11-0.14c1.64-1.78,3.27-3.56,4.91-5.34c0.33-0.36,0.78-0.4,1.13-0.12
		c0.4,0.32,0.46,0.95,0.13,1.35C19.02,8.18,19,8.2,18.98,8.21c-1.87,2.04-3.74,4.08-5.62,6.11c-0.26,0.28-0.56,0.36-0.9,0.23
		c-0.12-0.05-0.23-0.13-0.32-0.22c-1.88-2.03-3.75-4.07-5.62-6.11c-0.28-0.3-0.35-0.69-0.2-1.06c0.14-0.34,0.46-0.56,0.81-0.54
		C7.33,6.63,7.5,6.71,7.65,6.85C7.7,6.89,7.74,6.94,7.78,6.98c1.62,1.76,3.24,3.53,4.86,5.29C12.67,12.31,12.7,12.35,12.75,12.41z"
		/>
</g>
</svg>
