<?xml version="1.0" encoding="UTF-8"?>
<!DOCTYPE svg PUBLIC "-//W3C//DTD SVG 1.0//EN" "http://www.w3.org/TR/2001/REC-SVG-20010904/DTD/svg10.dtd">
<!-- Creator: CorelDRAW 2021 (64-Bit) -->
<svg xmlns="http://www.w3.org/2000/svg" xml:space="preserve" width="200px" height="200px" version="1.0" style="shape-rendering:geometricPrecision; text-rendering:geometricPrecision; image-rendering:optimizeQuality; fill-rule:evenodd; clip-rule:evenodd"
viewBox="0 0 61.38 61.38"
 xmlns:xlink="http://www.w3.org/1999/xlink"
 xmlns:xodm="http://www.corel.com/coreldraw/odm/2003">
 <defs>
  <style type="text/css">
   <![CDATA[
    .fil0 {fill:none}
    .fil1 {fill:#1E7B49}
   ]]>
  </style>
 </defs>
 <g id="Layer_x0020_1">
  <metadata id="CorelCorpID_0Corel-Layer"/>
  <g id="_2779684572000">
   <rect class="fil0" width="61.38" height="61.38"/>
   <path class="fil1" d="M0 27.16l14.05 4.87c0.33,0.36 -0.17,7.79 0.06,7.77 6.67,-0.65 11.41,1.45 16.58,3.96 5.82,-2.56 10.01,-4.04 16.58,-4.04l-0.09 -6.81 3.81 -2.13c0.56,-0.32 0.36,-0.28 0.92,-0.22l0 5.26c-0.82,0.7 -1.07,2.03 -0.26,3.11 0,1.55 -0.84,4.18 -0.69,5.71l4.09 0.01c-0.24,-0.97 -0.84,-4.67 -0.71,-5.51 -0.23,-0.11 0.57,-0.41 0.39,-1.85 -0.12,-1.03 -0.76,-0.68 -0.8,-1.94 -0.05,-1.86 0.01,-3.83 0.01,-5.7l7.44 -2.68 -30.69 -10.24 -30.69 10.43zm17.89 8.15l0 -9.16 1.87 0 0 7.6 4.63 0 0 1.56 -6.5 0zm7.81 0l0 -9.24 2.8 0 1.65 6.3 1.64 -6.3 2.81 0 0 9.24 -1.73 0 -0.01 -7.27 -1.82 7.27 -1.8 0 -1.81 -7.27 -0.01 7.27 -1.72 0zm10.28 -2.99l1.82 -0.18c0.11,0.6 0.33,1.05 0.66,1.34 0.34,0.28 0.78,0.42 1.35,0.42 0.6,0 1.05,-0.12 1.35,-0.38 0.31,-0.25 0.46,-0.55 0.46,-0.89 0,-0.22 -0.07,-0.4 -0.19,-0.56 -0.13,-0.15 -0.35,-0.28 -0.67,-0.4 -0.22,-0.07 -0.71,-0.21 -1.49,-0.4 -0.99,-0.25 -1.69,-0.55 -2.09,-0.92 -0.57,-0.51 -0.85,-1.13 -0.85,-1.86 0,-0.47 0.13,-0.92 0.4,-1.33 0.26,-0.41 0.65,-0.72 1.15,-0.94 0.5,-0.21 1.1,-0.32 1.81,-0.32 1.16,0 2.03,0.26 2.61,0.77 0.58,0.52 0.89,1.2 0.92,2.06l-1.87 0.06c-0.08,-0.47 -0.25,-0.82 -0.51,-1.03 -0.26,-0.2 -0.65,-0.31 -1.17,-0.31 -0.54,0 -0.96,0.11 -1.27,0.34 -0.19,0.14 -0.29,0.33 -0.29,0.57 0,0.22 0.09,0.41 0.28,0.56 0.23,0.2 0.8,0.41 1.71,0.63 0.9,0.21 1.57,0.43 2,0.66 0.44,0.23 0.78,0.54 1.02,0.94 0.25,0.4 0.37,0.89 0.37,1.47 0,0.53 -0.15,1.03 -0.44,1.49 -0.3,0.46 -0.71,0.81 -1.25,1.03 -0.54,0.23 -1.21,0.34 -2.01,0.34 -1.17,0 -2.06,-0.27 -2.69,-0.81 -0.62,-0.54 -1,-1.32 -1.12,-2.35z"/>
  </g>
 </g>
</svg>
