<?xml version="1.0" encoding="UTF-8"?>
<!DOCTYPE svg PUBLIC "-//W3C//DTD SVG 1.0//EN" "http://www.w3.org/TR/2001/REC-SVG-20010904/DTD/svg10.dtd">
<!-- Creator: CorelDRAW 2021 (64-Bit) -->
<svg xmlns="http://www.w3.org/2000/svg" xml:space="preserve" width="50px" height="50px" version="1.0" style="shape-rendering:geometricPrecision; text-rendering:geometricPrecision; image-rendering:optimizeQuality; fill-rule:evenodd; clip-rule:evenodd"
viewBox="0 0 11.04 11.04"
 xmlns:xlink="http://www.w3.org/1999/xlink"
 xmlns:xodm="http://www.corel.com/coreldraw/odm/2003">
 <defs>
  <style type="text/css">
   <![CDATA[
    .fil1 {fill:none}
    .fil0 {fill:#3E4095}
   ]]>
  </style>
 </defs>
 <g id="Layer_x0020_1">
  <metadata id="CorelCorpID_0Corel-Layer"/>
  <g id="_2780252263712">
   <path class="fil0" d="M0 4.89l2.53 0.87c0.06,0.07 -0.03,1.4 0.01,1.4 1.2,-0.11 2.05,0.26 2.98,0.71 1.05,-0.46 1.8,-0.72 2.98,-0.72l-0.01 -1.23 0.68 -0.38c0.11,-0.06 0.07,-0.05 0.17,-0.04l0 0.95c-0.15,0.12 -0.19,0.36 -0.05,0.55 0,0.28 -0.15,0.76 -0.12,1.03l0.73 0c-0.04,-0.17 -0.15,-0.84 -0.12,-0.99 -0.04,-0.02 0.1,-0.07 0.07,-0.33 -0.02,-0.19 -0.14,-0.12 -0.15,-0.35 -0.01,-0.33 0.01,-0.69 0.01,-1.03l1.33 -0.48 -5.52 -1.84 -5.52 1.88zm3.22 1.46l0 -1.65 0.34 0 0 1.37 0.83 0 0 0.28 -1.17 0zm1.4 0l0 -1.66 0.51 0 0.3 1.13 0.29 -1.13 0.51 0 0 1.66 -0.32 0 0 -1.31 -0.32 1.31 -0.33 0 -0.32 -1.31 -0.01 1.31 -0.31 0zm1.85 -0.54l0.33 -0.03c0.02,0.11 0.06,0.19 0.12,0.24 0.06,0.05 0.14,0.08 0.24,0.08 0.11,0 0.19,-0.02 0.25,-0.07 0.05,-0.04 0.08,-0.1 0.08,-0.16 0,-0.04 -0.01,-0.07 -0.04,-0.1 -0.02,-0.03 -0.06,-0.05 -0.12,-0.07 -0.04,-0.01 -0.12,-0.04 -0.26,-0.07 -0.18,-0.05 -0.31,-0.1 -0.38,-0.17 -0.1,-0.09 -0.15,-0.2 -0.15,-0.33 0,-0.09 0.02,-0.17 0.07,-0.24 0.05,-0.08 0.11,-0.13 0.21,-0.17 0.09,-0.04 0.19,-0.06 0.32,-0.06 0.21,0 0.37,0.05 0.47,0.14 0.11,0.09 0.16,0.21 0.17,0.37l-0.34 0.01c-0.01,-0.09 -0.05,-0.15 -0.09,-0.18 -0.05,-0.04 -0.12,-0.06 -0.21,-0.06 -0.1,0 -0.18,0.02 -0.23,0.06 -0.04,0.03 -0.05,0.06 -0.05,0.1 0,0.04 0.01,0.08 0.05,0.1 0.04,0.04 0.14,0.08 0.3,0.12 0.17,0.03 0.29,0.07 0.37,0.12 0.07,0.04 0.13,0.09 0.18,0.16 0.04,0.08 0.07,0.16 0.07,0.27 0,0.09 -0.03,0.18 -0.08,0.27 -0.06,0.08 -0.13,0.14 -0.23,0.18 -0.1,0.04 -0.22,0.06 -0.36,0.06 -0.21,0 -0.37,-0.05 -0.48,-0.14 -0.12,-0.1 -0.18,-0.24 -0.21,-0.43z"/>
   <rect class="fil1" width="11.04" height="11.04"/>
  </g>
 </g>
</svg>
