<?xml version="1.0" encoding="utf-8"?>
<!-- Generator: Adobe Illustrator 24.0.2, SVG Export Plug-In . SVG Version: 6.00 Build 0)  -->
<svg version="1.1" id="Layer_1" xmlns="http://www.w3.org/2000/svg" xmlns:xlink="http://www.w3.org/1999/xlink" x="0px" y="0px"
	 viewBox="0 0 13 13" style="enable-background:new 0 0 13 13;" xml:space="preserve">
<style type="text/css">
	.st0{fill:#FFFFFF;stroke:#231F20;stroke-miterlimit:10;}
	.st1{fill:none;stroke:#083553;stroke-width:0.5;stroke-miterlimit:10;}
	.st2{fill:#083553;}
</style>
<path class="st0" d="M15.84,8.48"/>
<g>
	<circle class="st1" cx="6.5" cy="6.5" r="6.22"/>
</g>
<g>
	<path class="st2" d="M2.96,4.88L5.8,6.42c0.45,0.24,0.95,0.24,1.4,0l2.84-1.54V4.25c0-0.25-0.21-0.46-0.46-0.46H3.42
		C3.17,3.79,2.96,4,2.96,4.25L2.96,4.88L2.96,4.88z"/>
	<polygon class="st2" points="2.96,8.77 4.89,6.37 2.96,5.32 2.96,8.75 	"/>
	<polygon class="st2" points="8.11,6.37 10.04,8.77 10.04,8.75 10.04,5.32 	"/>
	<path class="st2" d="M9.82,9.13L7.77,6.56L7.38,6.76c-0.56,0.31-1.2,0.31-1.77,0L5.23,6.56L3.18,9.13
		c0.07,0.05,0.16,0.07,0.25,0.07h6.15C9.67,9.21,9.75,9.18,9.82,9.13z"/>
</g>
</svg>
