<?xml version="1.0" encoding="utf-8"?>
<!-- Generator: Adobe Illustrator 24.0.2, SVG Export Plug-In . SVG Version: 6.00 Build 0)  -->
<svg version="1.1" id="Layer_1" xmlns="http://www.w3.org/2000/svg" xmlns:xlink="http://www.w3.org/1999/xlink" x="0px" y="0px"
	 viewBox="0 0 13 13" style="enable-background:new 0 0 13 13;" xml:space="preserve">
<style type="text/css">
	.st0{fill:none;stroke:#003453;stroke-width:0.5;stroke-miterlimit:10;}
	.st1{fill:#003453;}
</style>
<g>
	<g>
		<circle class="st0" cx="6.5" cy="6.5" r="6.22"/>
	</g>
	<g>
		<path class="st1" d="M8.64,3.53H4.36c-0.03,0-0.06,0.03-0.06,0.06v5.38C4.3,9,4.32,9.03,4.36,9.03l0,0h4.29
			C8.68,9.03,8.7,9,8.7,8.97v0V3.59C8.7,3.56,8.68,3.53,8.64,3.53C8.64,3.53,8.64,3.53,8.64,3.53z M8.09,5.54
			c-0.04,0.04-0.11,0.04-0.16,0L6.79,4.4c-0.04-0.04-0.04-0.11,0-0.16c0,0,0,0,0,0c0.04-0.04,0.11-0.04,0.16,0l1.14,1.14
			C8.14,5.43,8.14,5.5,8.09,5.54C8.09,5.54,8.09,5.54,8.09,5.54L8.09,5.54z M8.17,4.95C8.12,5,8.05,5,8.01,4.95L7.38,4.32
			C7.34,4.28,7.34,4.21,7.38,4.16c0.04-0.04,0.11-0.04,0.15,0l0.63,0.63C8.21,4.84,8.21,4.91,8.17,4.95
			C8.17,4.95,8.17,4.95,8.17,4.95L8.17,4.95z"/>
		<path class="st1" d="M8.64,9.25H4.36c-0.03,0-0.06,0.03-0.06,0.06c0,0,0,0,0,0v0.76c0,0.25,0.2,0.45,0.45,0.45h3.5
			c0.25,0,0.45-0.2,0.45-0.45V9.31C8.7,9.28,8.68,9.25,8.64,9.25C8.64,9.25,8.64,9.25,8.64,9.25z M6.78,9.92
			c-0.02,0.15-0.17,0.26-0.32,0.24C6.3,10.13,6.19,9.99,6.22,9.83C6.24,9.71,6.33,9.62,6.45,9.6c0.16-0.02,0.3,0.08,0.33,0.24
			C6.78,9.86,6.78,9.89,6.78,9.92L6.78,9.92z"/>
		<path class="st1" d="M8.25,2.48h-3.5c-0.25,0-0.45,0.2-0.45,0.45v0.31c0,0.03,0.03,0.06,0.06,0.06h4.29
			c0.03,0,0.06-0.03,0.06-0.06v0V2.93C8.7,2.68,8.5,2.48,8.25,2.48z M6.97,3H6.03C5.97,3,5.92,2.95,5.92,2.89s0.05-0.11,0.11-0.11
			h0.93c0.06,0,0.11,0.05,0.11,0.11S7.03,3,6.97,3z"/>
	</g>
</g>
</svg>
