<?xml version="1.0" encoding="utf-8"?>
<!-- Generator: Adobe Illustrator 24.0.2, SVG Export Plug-In . SVG Version: 6.00 Build 0)  -->
<svg version="1.1" id="Layer_1" xmlns="http://www.w3.org/2000/svg" xmlns:xlink="http://www.w3.org/1999/xlink" x="0px" y="0px"
	 viewBox="0 0 13 13" style="enable-background:new 0 0 13 13;" xml:space="preserve">
<style type="text/css">
	.st0{fill:none;stroke:#083553;stroke-width:0.5;stroke-miterlimit:10;}
	.st1{fill-rule:evenodd;clip-rule:evenodd;fill:#083553;}
	.st2{fill:#FFFFFF;stroke:#000000;stroke-miterlimit:10;}
</style>
<g>
	<g>
		<circle class="st0" cx="6.5" cy="6.5" r="6.22"/>
	</g>
	<g>
		<path class="st1" d="M9.07,6.12l0.77,2.75c0.07,0.26-0.17,0.72-0.43,0.72c-1.94,0-3.88,0-5.82,0c-0.26,0-0.5-0.45-0.43-0.72
			l0.77-2.75c0.93-0.1,0.79-0.43,0.79-1.13c0-0.1,0-0.19,0-0.26c0.41-0.26,3.16-0.26,3.57,0c0,0.07,0,0.17,0,0.26
			C8.28,5.69,8.14,6.02,9.07,6.12z M4.47,5.26c0,0.12,0,0.24,0.02,0.38c-0.02,0.38-1.87,0.38-1.87,0c0-0.14,0.02-0.31,0.05-0.43
			c0.29,0.07,0.57,0.12,0.84,0.12C3.85,5.35,4.16,5.31,4.47,5.26z M4.5,4.68c0,0.1,0,0.19,0,0.31c-0.34,0.07-0.65,0.1-0.96,0.07
			c-0.26,0-0.53-0.05-0.77-0.1c1.05-2.08,6.39-2.08,7.44,0c-0.24,0.05-0.48,0.1-0.74,0.1c-0.34,0.02-0.65,0-0.96-0.07
			c0-0.12,0-0.22,0-0.31C8.52,4.18,4.5,4.18,4.5,4.68z M8.52,5.26c0,0.12,0,0.24,0,0.38c0,0.38,1.87,0.38,1.84,0
			c0.02-0.14-0.02-0.31-0.05-0.43c-0.29,0.07-0.57,0.12-0.84,0.12C9.17,5.35,8.83,5.31,8.52,5.26z M7.71,5.67H7.04v0.69h0.67V5.67z
			 M5.96,7.46H5.29v0.67h0.67V7.46z M5.89,6.57c-0.17,0-0.34,0-0.5,0h-0.1v0.1c0,0.14,0,0.31,0,0.48v0.1h0.1c0.17,0,0.34,0,0.5,0
			h0.07v-0.1c0-0.17,0-0.34,0-0.48v-0.1H5.89z M6.17,7.46v0.67h0.67V7.46H6.17z M6.17,6.67c0,0.14,0,0.31,0,0.48v0.1h0.07
			c0.17,0,0.34,0,0.5,0h0.1v-0.1c0-0.17,0-0.34,0-0.48v-0.1h-0.1c-0.17,0-0.34,0-0.5,0H6.17V6.67z M7.71,7.46H7.04v0.67h0.67V7.46z
			 M7.61,6.57c-0.17,0-0.31,0-0.48,0h-0.1v0.1c0,0.14,0,0.31,0,0.48v0.1h0.1c0.17,0,0.31,0,0.48,0h0.1v-0.1c0-0.17,0-0.34,0-0.48
			v-0.1H7.61z M5.96,5.67H5.29v0.69h0.67V5.67z M6.75,5.67c-0.17,0-0.34,0-0.5,0H6.17v0.1c0,0.17,0,0.34,0,0.5v0.1h0.07
			c0.17,0,0.34,0,0.5,0h0.1v-0.1c0-0.17,0-0.34,0-0.5v-0.1H6.75z"/>
	</g>
</g>
<path class="st2" d="M15.84,8.48"/>
</svg>
