<?xml version="1.0" encoding="utf-8"?>
<!-- Generator: Adobe Illustrator 24.0.2, SVG Export Plug-In . SVG Version: 6.00 Build 0)  -->
<svg version="1.1" id="Layer_1" xmlns="http://www.w3.org/2000/svg" xmlns:xlink="http://www.w3.org/1999/xlink" x="0px" y="0px"
	 viewBox="0 0 13 13" style="enable-background:new 0 0 13 13;" xml:space="preserve">
<style type="text/css">
	.st0{fill:none;stroke:#003453;stroke-width:0.5;stroke-miterlimit:10;}
	.st1{fill:#003453;}
</style>
<g>
	<g>
		<circle class="st0" cx="6.5" cy="6.5" r="6.22"/>
	</g>
	<path class="st1" d="M10.08,4.37L10.08,4.37L9.98,4.21l-0.1-0.15l0,0C9.13,3.03,7.96,2.39,6.69,2.34V2.33H6.31v0.01
		C5.04,2.39,3.87,3.03,3.12,4.06l0,0l-0.1,0.15L2.91,4.37h0C2.57,4.96,2.37,5.63,2.34,6.31h0v0.37l0,0
		c0.03,0.69,0.23,1.36,0.58,1.95h0l0.11,0.16l0.1,0.15l0,0c0.75,1.04,1.93,1.67,3.2,1.72v0.01h0.37v-0.01
		c1.27-0.06,2.45-0.69,3.19-1.72l0,0l0.1-0.15l0.11-0.16l0,0c0.35-0.59,0.55-1.26,0.58-1.95l0,0V6.31l0,0
		C10.64,5.63,10.44,4.96,10.08,4.37z M7.69,8.44L7.68,8.46C7.67,8.51,7.66,8.57,7.64,8.62c0,0,0,0.01,0,0.01
		C7.63,8.69,7.61,8.74,7.6,8.8c0,0.01,0,0.02-0.01,0.03c-0.02,0.05-0.03,0.1-0.05,0.15L7.53,9C7.52,9.04,7.5,9.09,7.48,9.14
		c0,0,0,0.01,0,0.01C7.47,9.2,7.45,9.24,7.43,9.29c0,0.01-0.01,0.02-0.01,0.02C7.4,9.36,7.38,9.4,7.36,9.44L7.36,9.46
		C7.34,9.5,7.32,9.54,7.3,9.57L7.29,9.59C7.27,9.63,7.25,9.66,7.23,9.7L7.22,9.72C7.2,9.76,7.18,9.79,7.16,9.82L7.15,9.83
		C7.13,9.86,7.11,9.89,7.09,9.92L7.08,9.93c-0.02,0.03-0.04,0.05-0.07,0.08L7,10.03c-0.02,0.02-0.04,0.05-0.07,0.07
		c0,0-0.01,0.01-0.01,0.01c-0.02,0.02-0.04,0.04-0.06,0.05l-0.01,0.01c-0.02,0.02-0.04,0.03-0.07,0.05l-0.01,0.01
		c-0.02,0.01-0.05,0.02-0.07,0.03l0,0V8.17h0.12h0.09c0.11,0,0.21,0.01,0.32,0.02h0.02c0.1,0.01,0.2,0.02,0.29,0.03l0.09,0.01
		l0.1,0.01v0.01C7.71,8.32,7.7,8.38,7.69,8.44z M6.31,10.26c-0.02-0.01-0.05-0.02-0.07-0.03l-0.01-0.01
		c-0.02-0.01-0.05-0.03-0.07-0.05l-0.01-0.01c-0.02-0.02-0.04-0.04-0.06-0.05c0,0-0.01-0.01-0.01-0.01
		c-0.02-0.02-0.04-0.04-0.07-0.07L6,10.01C5.98,9.99,5.95,9.96,5.93,9.93L5.92,9.92C5.9,9.89,5.88,9.86,5.86,9.83L5.85,9.82
		c-0.02-0.03-0.04-0.06-0.06-0.1L5.78,9.7C5.76,9.66,5.74,9.63,5.72,9.59L5.71,9.57C5.69,9.54,5.67,9.5,5.66,9.46L5.65,9.44
		C5.63,9.4,5.61,9.36,5.59,9.32c0-0.01-0.01-0.02-0.01-0.02C5.56,9.25,5.54,9.2,5.53,9.15c0,0,0-0.01,0-0.01
		C5.51,9.09,5.49,9.05,5.48,9L5.47,8.98c-0.02-0.05-0.03-0.1-0.05-0.15c0-0.01,0-0.02-0.01-0.03C5.4,8.74,5.38,8.69,5.37,8.63
		c0,0,0-0.01,0-0.01C5.36,8.57,5.34,8.51,5.33,8.46L5.32,8.44C5.31,8.38,5.3,8.32,5.29,8.26V8.25l0.1-0.01l0.09-0.01
		C5.57,8.21,5.68,8.2,5.77,8.2H5.8C5.9,8.19,6.01,8.18,6.12,8.18h0.09l0.11-0.01V10.26L6.31,10.26z M5.31,4.56l0.01-0.02
		c0.01-0.06,0.03-0.11,0.04-0.16c0,0,0-0.01,0-0.01C5.37,4.31,5.39,4.26,5.4,4.2c0-0.01,0-0.02,0.01-0.03
		c0.02-0.05,0.03-0.1,0.05-0.15L5.47,4C5.48,3.96,5.5,3.91,5.52,3.86c0,0,0-0.01,0-0.01C5.53,3.8,5.55,3.76,5.57,3.71
		c0-0.01,0.01-0.02,0.01-0.03C5.6,3.64,5.62,3.6,5.64,3.56l0.01-0.02C5.66,3.5,5.68,3.46,5.7,3.43l0.01-0.01
		C5.73,3.37,5.75,3.34,5.77,3.3l0.01-0.02c0.02-0.04,0.04-0.07,0.06-0.1l0.01-0.01c0.02-0.03,0.04-0.06,0.06-0.09l0.01-0.01
		c0.02-0.03,0.04-0.05,0.07-0.08L6,2.97C6.02,2.95,6.05,2.93,6.07,2.9c0,0,0.01-0.01,0.01-0.01C6.1,2.88,6.12,2.86,6.14,2.84
		l0.01-0.01C6.17,2.82,6.2,2.8,6.22,2.79l0.01-0.01c0.03-0.01,0.05-0.02,0.08-0.03l0,0v2.09H6.2H6.1C6,4.83,5.89,4.82,5.78,4.82
		H5.76c-0.1-0.01-0.2-0.02-0.29-0.03L5.37,4.78l-0.1-0.01V4.75C5.29,4.68,5.3,4.62,5.31,4.56z M6.69,2.74
		c0.02,0.01,0.05,0.02,0.07,0.03l0.01,0.01C6.79,2.8,6.82,2.82,6.84,2.83l0.01,0.01C6.87,2.86,6.89,2.88,6.91,2.9
		c0,0,0.01,0.01,0.01,0.01c0.02,0.02,0.04,0.04,0.07,0.07L7,2.99c0.02,0.03,0.04,0.05,0.07,0.08l0.01,0.01
		C7.1,3.11,7.12,3.14,7.14,3.17l0.01,0.01c0.02,0.03,0.04,0.06,0.06,0.1L7.22,3.3c0.02,0.04,0.04,0.07,0.06,0.11l0.01,0.01
		C7.31,3.46,7.33,3.5,7.34,3.54l0.01,0.02C7.37,3.6,7.39,3.64,7.41,3.68l0.01,0.03C7.44,3.75,7.46,3.8,7.47,3.85c0,0,0,0.01,0,0.01
		C7.49,3.91,7.51,3.95,7.52,4l0.01,0.02c0.02,0.05,0.03,0.1,0.05,0.15c0,0.01,0,0.02,0.01,0.03C7.6,4.26,7.62,4.31,7.63,4.37
		c0,0,0,0.01,0,0.01c0.01,0.05,0.03,0.11,0.04,0.16l0.01,0.02C7.69,4.62,7.7,4.68,7.71,4.74v0.01l-0.1,0.01L7.52,4.78
		C7.43,4.79,7.32,4.8,7.23,4.8H7.2C7.1,4.81,6.99,4.82,6.88,4.82H6.79L6.69,4.83V2.74L6.69,2.74z M7.88,6.83c0,0.04,0,0.07,0,0.11
		C7.87,7.06,7.87,7.18,7.86,7.3c0,0,0,0.01,0,0.01C7.85,7.42,7.84,7.53,7.82,7.64c0,0.04-0.01,0.07-0.01,0.11
		c0,0.04-0.01,0.09-0.02,0.13C7.75,7.87,7.71,7.87,7.68,7.87l-0.1-0.01c-0.1-0.01-0.21-0.02-0.31-0.03H7.25
		C7.14,7.82,7.03,7.81,6.91,7.81h-0.1L6.69,7.8V6.69h1.2C7.89,6.73,7.89,6.78,7.88,6.83L7.88,6.83z M6.09,7.81
		c-0.11,0-0.22,0.01-0.33,0.02H5.74C5.63,7.83,5.53,7.84,5.42,7.85l-0.1,0.01c-0.04,0-0.08,0.01-0.11,0.01
		C5.21,7.84,5.2,7.79,5.19,7.75C5.19,7.71,5.18,7.68,5.18,7.64C5.17,7.53,5.15,7.42,5.14,7.31c0,0,0-0.01,0-0.01
		C5.13,7.18,5.13,7.06,5.12,6.94c0-0.04,0-0.07,0-0.11s0-0.09,0-0.14h1.19V7.8H6.19L6.09,7.81z M5.12,6.17c0-0.04,0-0.07,0-0.11
		C5.12,5.94,5.13,5.82,5.14,5.7c0,0,0-0.01,0-0.01c0.01-0.11,0.02-0.23,0.04-0.34c0-0.04,0.01-0.07,0.01-0.11
		c0-0.04,0.01-0.09,0.02-0.13c0.04,0.01,0.08,0.01,0.11,0.01l0.1,0.01c0.1,0.01,0.21,0.02,0.31,0.03h0.02
		c0.11,0.01,0.22,0.01,0.33,0.02h0.1L6.31,5.2v1.11h-1.2C5.12,6.27,5.12,6.22,5.12,6.17z M6.91,5.19c0.11,0,0.22-0.01,0.33-0.02
		h0.02c0.11-0.01,0.21-0.02,0.31-0.03l0.1-0.01c0.04,0,0.08-0.01,0.11-0.01C7.79,5.16,7.8,5.21,7.81,5.25
		C7.81,5.3,7.82,5.32,7.82,5.36c0.01,0.11,0.03,0.22,0.04,0.34c0,0,0,0.01,0,0.01c0.01,0.12,0.02,0.24,0.02,0.36
		c0,0.04,0,0.07,0,0.11c0,0.04,0,0.09,0,0.14H6.69V5.2h0.13L6.91,5.19z M8.26,6.31c0-0.05,0-0.1,0-0.16c0-0.04,0-0.07,0-0.11
		C8.25,5.92,8.25,5.8,8.24,5.68V5.65C8.23,5.54,8.22,5.42,8.2,5.31c0-0.04-0.01-0.08-0.01-0.11C8.18,5.16,8.18,5.11,8.17,5.07l0,0
		l0,0l0.06-0.01l0.09-0.02L8.5,5l0.09-0.02c0.07-0.01,0.13-0.03,0.19-0.05l0.05-0.01C8.91,4.9,8.99,4.87,9.06,4.85l0.06-0.02
		c0.05-0.02,0.11-0.04,0.16-0.06l0.07-0.03C9.4,4.73,9.45,4.71,9.49,4.69c0.02-0.01,0.05-0.02,0.07-0.03
		C9.61,4.64,9.66,4.62,9.7,4.6l0.06-0.03l0.02-0.01c0.32,0.53,0.5,1.14,0.53,1.76H8.26z M9.56,4.25C9.5,4.27,9.45,4.3,9.38,4.33
		L9.33,4.35C9.29,4.37,9.24,4.39,9.19,4.4L9.13,4.43c-0.05,0.02-0.1,0.03-0.15,0.05C8.96,4.49,8.94,4.49,8.92,4.5
		C8.85,4.52,8.78,4.54,8.7,4.56l-0.02,0C8.62,4.59,8.55,4.6,8.47,4.62L8.4,4.64L8.23,4.67L8.15,4.69L8.09,4.7
		c0-0.02-0.01-0.03-0.01-0.05L8.07,4.57c0-0.02-0.01-0.05-0.01-0.07c0-0.02-0.01-0.05-0.02-0.08L8.02,4.35
		C8.01,4.33,8.01,4.31,8,4.28C8,4.26,7.99,4.24,7.98,4.21L7.96,4.14C7.96,4.12,7.95,4.1,7.95,4.08S7.93,4.03,7.92,4.01
		C7.92,3.99,7.91,3.97,7.91,3.95C7.9,3.93,7.89,3.9,7.88,3.88C7.87,3.85,7.87,3.84,7.86,3.82C7.86,3.81,7.84,3.76,7.83,3.73
		L7.81,3.67C7.8,3.64,7.79,3.61,7.78,3.58L7.76,3.54C7.75,3.51,7.74,3.49,7.73,3.47C7.72,3.45,7.71,3.44,7.7,3.43
		S7.69,3.39,7.68,3.37C7.67,3.35,7.66,3.34,7.65,3.32L7.63,3.26L7.6,3.22C7.59,3.2,7.58,3.18,7.57,3.17L7.55,3.12L7.52,3.07
		L7.49,3.03C7.48,3.02,7.47,3,7.46,2.98C7.45,2.97,7.45,2.96,7.44,2.95L7.4,2.9L7.38,2.87L7.34,2.81L7.32,2.79
		C8.22,2.99,9.01,3.51,9.56,4.25z M5.68,2.79L5.66,2.81L5.62,2.87L5.59,2.9L5.56,2.95C5.55,2.96,5.54,2.97,5.54,2.99
		S5.51,3.02,5.5,3.03L5.48,3.07L5.45,3.12L5.43,3.17C5.42,3.18,5.41,3.2,5.4,3.22L5.37,3.27L5.35,3.32
		C5.34,3.34,5.33,3.35,5.32,3.37C5.31,3.38,5.31,3.41,5.3,3.43C5.29,3.45,5.28,3.46,5.27,3.48S5.26,3.52,5.25,3.54L5.23,3.59
		C5.22,3.62,5.2,3.65,5.19,3.68L5.17,3.74C5.16,3.77,5.15,3.8,5.14,3.83S5.13,3.87,5.12,3.88C5.11,3.9,5.1,3.93,5.1,3.96
		S5.08,4,5.08,4.02C5.07,4.04,5.06,4.06,5.06,4.09C5.05,4.11,5.05,4.13,5.04,4.15L5.02,4.22C5.01,4.24,5.01,4.27,5,4.29
		C5,4.31,4.99,4.34,4.98,4.36L4.97,4.43C4.96,4.45,4.96,4.48,4.95,4.5C4.94,4.53,4.94,4.55,4.94,4.58L4.92,4.65
		c0,0.02-0.01,0.03-0.01,0.05L4.85,4.69L4.77,4.68L4.6,4.64L4.53,4.63C4.46,4.61,4.38,4.59,4.32,4.57l-0.02,0
		C4.22,4.55,4.15,4.53,4.08,4.5C4.06,4.5,4.04,4.49,4.02,4.49c-0.05-0.02-0.1-0.03-0.15-0.05L3.81,4.41
		C3.76,4.39,3.72,4.37,3.67,4.36L3.62,4.33C3.56,4.31,3.5,4.28,3.45,4.25C3.99,3.51,4.78,3,5.68,2.79z M3.24,4.55l0.02,0.01
		l0.06,0.03C3.35,4.61,3.4,4.63,3.44,4.65l0.07,0.03C3.56,4.7,3.61,4.72,3.65,4.74l0.07,0.03c0.05,0.02,0.11,0.04,0.16,0.06
		l0.06,0.02C4.02,4.87,4.1,4.89,4.18,4.91l0.05,0.01C4.3,4.94,4.36,4.96,4.43,4.98l0.09,0.02l0.17,0.04l0.09,0.02l0.06,0.01l0,0l0,0
		C4.83,5.11,4.83,5.15,4.82,5.19C4.82,5.24,4.81,5.27,4.81,5.31C4.79,5.42,4.78,5.53,4.77,5.65v0.03C4.76,5.79,4.75,5.92,4.75,6.04
		c0,0.04,0,0.07,0,0.11c0,0.05,0,0.1,0,0.16H2.71C2.74,5.69,2.92,5.09,3.24,4.55z M4.74,6.69L4.74,6.69c0,0.05,0,0.1,0,0.16
		c0,0.04,0,0.07,0,0.11C4.75,7.08,4.76,7.2,4.77,7.32v0.03C4.78,7.46,4.79,7.58,4.8,7.69c0,0.04,0.01,0.08,0.01,0.11
		c0.01,0.04,0.01,0.09,0.02,0.13l0,0l0,0L4.77,7.95L4.68,7.96L4.51,8L4.42,8.02C4.35,8.03,4.29,8.05,4.23,8.07L4.17,8.08
		C4.09,8.1,4.02,8.13,3.94,8.15L3.88,8.17C3.83,8.19,3.77,8.21,3.72,8.23L3.65,8.26C3.6,8.27,3.56,8.29,3.51,8.31L3.44,8.34
		C3.39,8.36,3.35,8.38,3.31,8.4L3.25,8.43L3.23,8.44C2.92,7.91,2.73,7.3,2.71,6.69H4.74z M3.44,8.75C3.5,8.73,3.56,8.7,3.62,8.67
		l0.05-0.02C3.71,8.63,3.76,8.61,3.81,8.6l0.07-0.02c0.05-0.02,0.1-0.03,0.15-0.05C4.04,8.51,4.06,8.51,4.08,8.5
		C4.15,8.48,4.22,8.46,4.3,8.44h0.02C4.38,8.42,4.45,8.4,4.53,8.39L4.6,8.37l0.17-0.04l0.08-0.02l0.06-0.01
		c0,0.02,0.01,0.03,0.01,0.05l0.02,0.08c0,0.02,0.01,0.05,0.01,0.07c0,0.02,0.01,0.05,0.02,0.08l0.02,0.07
		C4.99,8.68,4.99,8.7,5,8.72C5,8.75,5.01,8.77,5.02,8.79l0.02,0.07C5.04,8.88,5.05,8.9,5.05,8.92c0.01,0.02,0.01,0.05,0.02,0.07
		c0.01,0.02,0.01,0.04,0.02,0.06C5.1,9.07,5.11,9.1,5.12,9.13c0.01,0.02,0.01,0.04,0.02,0.05C5.14,9.2,5.16,9.24,5.17,9.27
		l0.02,0.06C5.2,9.36,5.21,9.39,5.22,9.42l0.02,0.05c0.01,0.02,0.02,0.04,0.03,0.07c0.01,0.02,0.01,0.03,0.02,0.05
		C5.3,9.6,5.31,9.62,5.32,9.64s0.02,0.03,0.02,0.05l0.03,0.06l0.02,0.05C5.4,9.81,5.41,9.83,5.42,9.84l0.03,0.04l0.03,0.04
		l0.03,0.04C5.52,9.98,5.53,10,5.54,10.02c0.01,0.02,0.02,0.03,0.02,0.04L5.6,10.1l0.02,0.03l0.04,0.06l0.01,0.02
		C4.78,10.01,3.99,9.49,3.44,8.75z M7.32,10.21l0.01-0.02l0.04-0.06l0.02-0.03l0.04-0.05c0.01-0.01,0.02-0.02,0.02-0.04
		S7.49,9.98,7.5,9.97l0.02-0.04l0.03-0.05l0.03-0.04C7.58,9.82,7.59,9.8,7.6,9.78l0.02-0.05l0.03-0.06
		c0.01-0.02,0.01-0.03,0.02-0.05S7.69,9.59,7.7,9.57s0.01-0.03,0.02-0.05s0.02-0.04,0.03-0.07l0.02-0.05
		C7.78,9.38,7.8,9.35,7.81,9.32l0.02-0.06C7.84,9.23,7.85,9.2,7.86,9.17c0.01-0.03,0.01-0.04,0.02-0.05C7.89,9.1,7.9,9.07,7.9,9.04
		C7.91,9.02,7.92,9,7.92,8.98c0.01-0.02,0.01-0.05,0.02-0.07c0.01-0.02,0.01-0.04,0.02-0.06l0.02-0.07C7.99,8.76,7.99,8.73,8,8.71
		C8,8.69,8.01,8.66,8.02,8.64l0.02-0.07C8.04,8.55,8.04,8.52,8.05,8.5c0.01-0.03,0.01-0.05,0.01-0.07l0.02-0.08
		c0-0.02,0.01-0.03,0.01-0.05l0.06,0.01l0.08,0.02L8.4,8.36l0.07,0.02c0.07,0.02,0.14,0.03,0.21,0.05H8.7
		c0.08,0.02,0.15,0.04,0.22,0.06C8.94,8.5,8.96,8.5,8.98,8.51c0.05,0.02,0.1,0.03,0.15,0.05l0.07,0.02C9.24,8.6,9.28,8.62,9.33,8.64
		l0.05,0.02C9.44,8.69,9.5,8.71,9.55,8.74C9.01,9.48,8.22,10,7.32,10.21z M9.76,8.45L9.74,8.44L9.69,8.41
		C9.64,8.39,9.59,8.36,9.55,8.34C9.53,8.33,9.51,8.32,9.48,8.31C9.44,8.29,9.39,8.28,9.34,8.26L9.27,8.23
		C9.22,8.21,9.16,8.19,9.11,8.17L9.05,8.15C8.97,8.13,8.9,8.11,8.82,8.08L8.77,8.07C8.7,8.06,8.64,8.04,8.57,8.03L8.49,8.01
		L8.31,7.97L8.22,7.95L8.16,7.94l0,0l0,0C8.17,7.9,8.17,7.85,8.18,7.81c0.01-0.04,0.01-0.08,0.01-0.11
		c0.01-0.11,0.03-0.22,0.04-0.34V7.33c0.01-0.12,0.02-0.25,0.02-0.37c0-0.04,0-0.07,0-0.11c0-0.05,0-0.1,0-0.16h2.05
		C10.27,7.31,10.08,7.91,9.76,8.45z"/>
</g>
</svg>
