<?xml version="1.0" encoding="utf-8"?>
<!-- Generator: Adobe Illustrator 24.0.2, SVG Export Plug-In . SVG Version: 6.00 Build 0)  -->
<svg version="1.1" id="Слой_1" xmlns="http://www.w3.org/2000/svg" xmlns:xlink="http://www.w3.org/1999/xlink" x="0px" y="0px"
	 viewBox="0 0 2800 2000" style="enable-background:new 0 0 2800 2000;" xml:space="preserve">
<style type="text/css">
	.st0{fill:#D4DEFF;}
	.st1{fill:#FFFFFF;}
	.st2{fill:#E3EAFF;}
	.st3{fill:#95A6DB;}
	.st4{fill:#3F964F;}
	.st5{fill:#4EAD60;}
	.st6{opacity:0.2;fill:#193F1E;}
	.st7{fill:#2C2858;}
	.st8{fill:#0E6A41;}
	.st9{fill:#201D40;}
	.st10{fill:#C4204A;}
	.st11{fill:#E62552;}
	.st12{fill:#F37A50;}
	.st13{fill:#DE623C;}
	.st14{fill:#020205;}
	.st15{fill:#FABA23;}
	.st16{fill:#FAD332;}
	.st17{fill:#FAEE6C;}
	.st18{fill:#F9CD2D;}
	.st19{fill:#F9F93A;}
	.st20{fill:#D6224C;}
	.st21{fill:#FAC832;}
</style>
<g>
	<g>
		<circle class="st0" cx="649.8" cy="320.6" r="81.4"/>
		<g>
			<path class="st1" d="M670.5,380.4l-6.3-14.2c-8.2,3.4-17.8,4.6-24.2,3.3l-0.8-10.9c6.5,1.1,15,0.6,22.9-2.9
				c10-4.4,14.2-13.1,10.7-21.1c-3.4-7.7-11-10.1-23.2-9.7c-16.8,0.7-28.5-1.9-33.9-14.1c-5.1-11.7-0.7-24.2,11.3-32l-6.3-14.2
				l8.7-3.8l6,13.6c8.6-3.4,15.3-3.7,20.4-3.1l0.6,10.8c-3.7-0.4-10.8-0.9-19.8,3c-10.8,4.8-12,13-9.6,18.6c3.2,7.3,10,8.7,24.5,8.3
				c17.1-0.5,27.6,3.6,33.1,16.1c4.9,11.1,1.7,24.9-11.7,33.7l6.4,14.6L670.5,380.4z"/>
		</g>
	</g>
	<g>
		<path class="st0" d="M414.2,745.3l-68.7-77.1c0,0,25.3-54.1,99.4-56.1c46-1.2,86.6-47.5,86.6-47.5l69,77.5c0,0-44.7,63.6-97.3,64
			C447.7,706.6,414.2,745.3,414.2,745.3z"/>
		<path class="st2" d="M512.3,638.8c7.2,19.9-5.8,42.8-28.9,51.2c-23.2,8.4-47.8-0.9-55-20.8c-7.2-19.9,5.8-42.8,28.9-51.2
			C480.5,609.6,505.1,618.9,512.3,638.8z"/>
	</g>
	<g>
		<path class="st0" d="M2562,833.1l-33.2-97.8c0,0-59.6-4.7-97.8,58.8c-23.7,39.4-84.1,51.9-84.1,51.9l33.4,98.3
			c0,0,77.3-7.5,103.7-53C2511.8,843.2,2562,833.1,2562,833.1z"/>
		<path class="st2" d="M2421,865.9c13.7,16.1,40.1,16.1,58.8,0.1c18.7-16,22.8-42,9.1-58.1c-13.7-16.1-40.1-16.1-58.8-0.1
			C2411.3,823.8,2407.2,849.8,2421,865.9z"/>
	</g>
	<path class="st2" d="M2528,1901.6c116-185.1,235.6-333.1,223.1-595.4c-10.7-224.8-264.5-289.7-331.9-385.4
		c-82.5-117.1,14.3-339-132-538.8c-160.2-218.8-416.9-214-628-103.5c-154.2,80.7-312.5,108.5-467.5,60.7
		c-262-80.9-620.9-103.5-656.6,217.7c-24.8,223.3-146.3,292.6-339,442.5c-259.9,202.2-62.1,601.8,38.1,884.3L2528,1901.6z"/>
	<path class="st3" d="M2528,1901.6H103.2c-6.7,0-12.1-5.4-12.1-12.1v-2.3c0-6.7,5.4-12.1,12.1-12.1H2528c6.7,0,12.1,5.4,12.1,12.1
		v2.3C2540,1896.2,2534.6,1901.6,2528,1901.6z"/>
	<g>
		<path class="st1" d="M1621.2,904c12.9,43.7-12.1,89.5-55.8,102.3c-43.7,12.9-89.5-12.1-102.3-55.8
			c-12.9-43.7,12.1-89.5,55.8-102.3C1562.6,835.3,1608.4,860.3,1621.2,904z"/>
		<g>
			<path class="st2" d="M1555.1,989.9l-4.4-15.1c-8.7,2.4-18.4,2.3-24.7,0.2l0.6-11c6.4,2,15,2.5,23.4,0.1
				c10.6-3.1,15.9-11.3,13.4-19.8c-2.4-8.2-9.7-11.6-22.1-12.8c-17-1.5-28.4-5.6-32.2-18.5c-3.6-12.4,2.4-24.4,15.4-30.6l-4.4-15.1
				l9.2-2.7l4.3,14.5c9-2.3,15.8-1.8,20.9-0.5l-0.8,10.9c-3.7-0.9-10.7-2.3-20.3,0.5c-11.5,3.4-13.8,11.5-12,17.5
				c2.3,7.8,8.9,10,23.5,11.6c17.2,1.7,27.2,7.2,31.1,20.5c3.5,11.8-1.5,25.2-16.1,32.3l4.6,15.5L1555.1,989.9z"/>
		</g>
	</g>
	<g>
		<polygon class="st4" points="1436.5,1098.9 1337,1169.4 1024.1,1391.2 991.7,1414.1 1016.4,1449.2 1153.2,1643.9 1392.4,1474 
			1514.2,1387.5 1515.6,1386.4 1528,1229.1 		"/>
		<path class="st5" d="M1509.5,1285l-61.9-88.1c-21.4,15-50.8,9.9-65.9-11.5l-290,206.5c15,21.4,9.9,50.9-11.5,65.9l61.9,88.1
			c21.4-15,50.8-9.9,65.9,11.5l290-206.5C1483,1329.5,1488.1,1300,1509.5,1285z"/>
		<path class="st4" d="M1372.1,1320.2c-24.9-35.5-73.9-44-109.3-19.1c-35.5,24.9-44,73.9-19.1,109.3c24.9,35.5,73.9,44,109.3,19.1
			C1388.4,1404.6,1397,1355.7,1372.1,1320.2z"/>
		<polygon class="st4" points="1528,1229.1 1439.4,1313.8 1514.2,1387.5 1515.5,1388.7 1515.6,1386.4 		"/>
		<g>
			<polygon class="st6" points="1483,1409.4 1439.4,1313.8 1514.2,1387.5 			"/>
			<polygon class="st6" points="1528,1229.1 1439.4,1313.8 1521.9,1220.5 			"/>
		</g>
		<path class="st6" d="M1337,1169.4l-312.9,221.8l-7.7,58.1l136.8,194.7l239.2-169.9l-12.2-46.3c-4.6-17.5-35.6-25.2-74.9-20.8
			L1337,1169.4z"/>
		
			<rect x="827.6" y="1212.5" transform="matrix(0.1321 -0.9912 0.9912 0.1321 -338.2677 2319.5327)" class="st4" width="655.7" height="280.8"/>
		<path class="st5" d="M1245.9,1081.9l-106.8-14.2c-3.4,25.9-27.2,44.1-53.1,40.6l-61.7,462.5c25.9,3.4,44.1,27.2,40.6,53.1
			l106.8,14.2c3.5-25.9,27.2-44.1,53.1-40.6l61.7-462.5C1260.7,1131.6,1242.5,1107.8,1245.9,1081.9z"/>
		
			<ellipse transform="matrix(0.1989 -0.98 0.98 0.1989 -398.9261 2223.4993)" class="st4" cx="1160.6" cy="1355.8" rx="78.5" ry="78.5"/>
		<path class="st4" d="M1255.3,1429.4L987.9,1500l71.7,271.5l267.5-70.6l-50.4-191.1c53.4-14.3,91.9-43.6,86.1-65.7
			C1356.8,1422,1308.9,1415.5,1255.3,1429.4L1255.3,1429.4z"/>
		
			<rect x="1138.3" y="1423.9" transform="matrix(-0.2552 -0.9669 0.9669 -0.2552 25.7191 3178.6399)" class="st5" width="197.6" height="310.9"/>
		
			<ellipse transform="matrix(0.8392 -0.5438 0.5438 0.8392 -665.2211 917.9727)" class="st4" cx="1219.8" cy="1584" rx="70.1" ry="70.1"/>
		<path class="st6" d="M1255.3,1429.4l-27.4,7.2l71.7,271.5l124.1-32.8l-61-231.3C1356.8,1422,1308.9,1415.5,1255.3,1429.4
			L1255.3,1429.4z"/>
		<path class="st4" d="M1362.6,1444.1c5.8,22.1-32.6,51.4-86.1,65.7l71.7,271.5l0,0c53.4-14.3,91.9-43.6,86.1-65.7L1362.6,1444.1z"
			/>
		<path class="st5" d="M1375.6,1493.1c2.6,9.8-4,20.7-16.1,29.2c3.6,15.1-4.8,30.1-18.9,33.9l-0.1,0l36.2,137.3l0.1,0
			c13-3.4,26.4,3.9,31.9,16.6c12.3-8.5,19-19.5,16.4-29.4L1375.6,1493.1z"/>
	</g>
	<g>
		<path class="st7" d="M1044.5,1874.5l-393.5,0.2c-62.1,0-112.4-50.2-112.4-112.3l-0.6-962.9c0-62.1,50.2-112.4,112.3-112.4
			l393.5-0.2c62.1,0,112.4,50.2,112.4,112.3l0.6,962.9C1156.8,1824.1,1106.5,1874.4,1044.5,1874.5z"/>
		<path class="st3" d="M1048.5,1855.2l-401.6,0.3c-43.6,0-79-35.3-79.1-79l-0.6-984c0-43.6,35.3-79,79-79.1l401.6-0.3
			c43.6,0,79,35.3,79.1,79l0.6,984C1127.5,1819.8,1092.2,1855.2,1048.5,1855.2z"/>
		<path class="st7" d="M534.3,1001.9L534.3,1001.9c-9.7,0-17.5-7.9-17.5-17.5v-90.9c0-9.7,7.9-17.5,17.5-17.5l0,0
			c9.7,0,17.5,7.8,17.5,17.5v90.9C551.8,994,544,1001.9,534.3,1001.9z"/>
		<path class="st7" d="M1159.5,1001.9L1159.5,1001.9c-9.7,0-17.5-7.9-17.5-17.5v-90.9c0-9.7,7.9-17.5,17.5-17.5l0,0
			c9.7,0,17.5,7.8,17.5,17.5v90.9C1177.1,994,1169.2,1001.9,1159.5,1001.9z"/>
	</g>
	<g>
		<path class="st7" d="M2109.3,1874.5l-393.5,0.2c-62.1,0-112.4-50.2-112.4-112.3l-0.6-962.9c0-62.1,50.2-112.4,112.3-112.4
			l393.5-0.2c62.1,0,112.4,50.2,112.4,112.3l0.6,962.9C2221.7,1824.1,2171.4,1874.4,2109.3,1874.5z"/>
		<path class="st3" d="M2113.4,1855.2l-401.6,0.3c-43.6,0-79-35.3-79.1-79l-0.6-984c0-43.6,35.3-79,79-79.1l401.6-0.3
			c43.6,0,79,35.3,79.1,79l0.6,984C2192.4,1819.8,2157,1855.2,2113.4,1855.2z"/>
		<path class="st7" d="M1599.2,1001.9L1599.2,1001.9c-9.7,0-17.5-7.9-17.5-17.5v-90.9c0-9.7,7.8-17.5,17.5-17.5l0,0
			c9.7,0,17.5,7.8,17.5,17.5v90.9C1616.7,994,1608.8,1001.9,1599.2,1001.9z"/>
		<path class="st7" d="M2224.4,1001.9L2224.4,1001.9c-9.7,0-17.5-7.9-17.5-17.5v-90.9c0-9.7,7.9-17.5,17.5-17.5l0,0
			c9.7,0,17.5,7.8,17.5,17.5v90.9C2241.9,994,2234.1,1001.9,2224.4,1001.9z"/>
		<path class="st7" d="M1599.2,1136.4L1599.2,1136.4c-9.7,0-17.5-7.8-17.5-17.5v-90.9c0-9.7,7.8-17.5,17.5-17.5l0,0
			c9.7,0,17.5,7.8,17.5,17.5v90.9C1616.7,1128.5,1608.8,1136.4,1599.2,1136.4z"/>
	</g>
	<g>
		<g>
			<path class="st8" d="M353.5,1813.3c-13.2,55.5-60.5,25-50.6,60.1c0.7,2.6,3.2,4.3,5.9,4.4l27.7,1.1c2.7,0.1,5.3-0.7,7.5-2.2
				c14.6-10,24.6-24.1,56.2-25.9c-0.2-13.5,0.4-32.8-4.1-39.7L353.5,1813.3z"/>
			<path class="st9" d="M426.6,1423.7c0,0-80.7,123.1-91.8,161.4c-11.1,38.3,12.2,103.2,7.9,233.9c25.2,6.5,58.9,0.9,58.9,0.9
				s20.2-164-3.6-202.7c35.7-54.4,125.3-173.3,125.3-173.3L426.6,1423.7z"/>
		</g>
		<g>
			<path class="st8" d="M471.4,1831.2c-20.5,28-71.8,11.4-69.7,48.9c77.7-1.2,110-1.1,110-1.1c-0.2-8.6-1.9-29.1-3.8-37.1
				L471.4,1831.2z"/>
			<path class="st7" d="M447.3,1398.8c0,0-25.7,200.8-19.8,240.2c5.9,39.4,24.3,70.3,25,201.1c25.4,5.6,64.3,10.6,64.3,10.6
				s16.4-157.8-17.3-201.2c9.6-64.4,55.1-226.3,55.1-226.3L447.3,1398.8z"/>
		</g>
		<g>
			<path class="st10" d="M315.5,1310.4l-31.4-35.2c-0.7-0.8-1.7-1.2-2.7-1.2l-25.8-0.2c-0.7,0-3,4.1-2.5,4.6l22.1,19.7
				c0.1,0.1,0.2,0.2,0.4,0.2l38,14.1C314.3,1312.7,316,1311,315.5,1310.4z"/>
			<path class="st11" d="M313.1,1312.7l-29.9-33.2c-0.7-0.8-1.7-1.2-2.7-1.2l-26.6-0.5c-0.7,0-1.1,0.9-0.6,1.4l21,23.2
				c0.1,0.1,0.2,0.2,0.4,0.2l37.5,11.4C313,1314.4,313.6,1313.4,313.1,1312.7z"/>
			<path class="st12" d="M372.1,1343l-21.6-10.6c0,0-21.3-21.6-24.5-26.4c-4.7-2.4-13.7-8.4-15.7-8.7c-2-0.2-6.2,0.4-6.2,0.4
				l10,11.4c0,0-4.8,0.9-10.8-2.9c-6.1-3.9-16.8-14.2-22-12.2c-1.9,1.6-1.9,1.6-1.9,1.6s-3.3-3.5-6.4-2.2
				c-3.1,1.3,3.1,16.9,20.7,33.4c1.2,4.4,7,12.1,7,12.1l35.6,12.5L372.1,1343z"/>
			<path class="st10" d="M278.3,1284.6c1.3,1.3,3.1,1.5,4.1,0.5c1-1,0.7-2.8-0.5-4.1c-1.3-1.3-3.1-1.5-4.1-0.5
				C276.8,1281.5,277,1283.3,278.3,1284.6z"/>
			<path class="st12" d="M472.8,1184c-6.4,8.3,43.8,17.4,50.6,0.1c6.7-17.3-4.8-64.8-4.8-64.8l-45.8,9.7
				C472.7,1129.1,481.1,1173.2,472.8,1184z"/>
			<g>
				
					<ellipse transform="matrix(0.9945 -0.1044 0.1044 0.9945 -110.7413 55.634)" class="st12" cx="476.3" cy="1086" rx="52.5" ry="66.9"/>
				<path d="M441,1102.3c-1,2.8-4.2,4.3-7,3.3c-2.8-1-4.3-4.2-3.3-7c1-2.8,4.2-4.3,7-3.3C440.6,1096.4,442.1,1099.5,441,1102.3z"/>
				<path d="M476.9,1094.5c-1.1,3.1-4.5,4.7-7.6,3.6c-3.1-1.1-4.7-4.5-3.6-7.6c1.1-3.1,4.5-4.7,7.6-3.6
					C476.4,1088,478,1091.4,476.9,1094.5z"/>
				<path class="st13" d="M451.5,1101.2c-1.2,8.6-2.8,19.2-2.8,19.2s5.7,6,15,1.8c-4.7,0.2-9.8-0.7-10.6-6.7
					C452.4,1109.5,451.5,1101.2,451.5,1101.2z"/>
				<g>
					<path class="st14" d="M439.4,1089.8c-0.6,0.4-1.4,0.4-2.1,0c-0.1,0-2.3-1.2-4.5-0.4c-1.5,0.6-2.7,2.1-3.6,4.4
						c-0.4,1.1-1.6,1.6-2.7,1.2c-1.1-0.4-1.6-1.6-1.2-2.7c1.3-3.5,3.4-5.9,6.1-6.9c4-1.5,7.8,0.5,7.9,0.6c1,0.6,1.4,1.8,0.8,2.8
						C440,1089.4,439.7,1089.7,439.4,1089.8z"/>
				</g>
				<g>
					<path class="st14" d="M466.7,1083.9c0.7,0.1,1.5-0.1,2-0.6c0.1-0.1,1.8-1.9,4.1-1.8c1.6,0,3.2,1,4.8,3c0.7,0.9,2.1,1,3,0.3
						c0.9-0.7,1-2.1,0.3-3c-2.4-2.9-5.1-4.4-8-4.5c-4.2-0.1-7.1,3.1-7.3,3.2c-0.8,0.9-0.7,2.2,0.1,3
						C466,1083.6,466.4,1083.8,466.7,1083.9z"/>
				</g>
				<path class="st14" d="M517.8,1103.9c-19-15.9-13.8-40.2-13.8-40.2c-9.2,0.6-11.8,4.5-11.8,4.5c-7.4-8.5-5.6-16.5-5.6-16.5
					c-20-2.2-25.8,12-41.1,20.3c-20.9,11.4-50.9,9.9-60.8-16.6c-1.4-3.8,2.2-7.6,6.1-6.3c3.6,1.2,8.1,1.8,13.1,0.3
					c0,0-6.1-4-8.3-11.3c-1.2-4,2.9-7.4,6.7-5.7c5.7,2.6,15.3,3.9,29.9-3.1c9.7-4.7,28.7-27.4,44.2-28.1c12.6-0.6,24.8,7,32.8,20.4
					c0,0,30.1-4.9,41.7,26.6c11.4,30.9-31.4,78.6-31.4,78.6S522.8,1108.8,517.8,1103.9z"/>
				<path class="st1" d="M453.8,1136.3c-1.2-0.8-0.9-2.6,0.5-2.9c3.5-0.9,9.2-2.4,14.5-4.4c5.3-2,10.6-4.6,13.8-6.3
					c1.3-0.7,2.7,0.5,2.3,1.9c-1.2,4.2-4.4,11.1-12.5,14.1C464.4,1141.8,457.5,1138.7,453.8,1136.3z"/>
				<g>
					<path class="st12" d="M504.2,1082.2c-6.2,6.1-7.2,15.2-2.2,20.2c5,5.1,14.1,4.2,20.2-1.9c6.2-6.1,7.2-15.2,2.2-20.2
						C519.5,1075.3,510.4,1076.1,504.2,1082.2z"/>
					<g>
						<path class="st13" d="M510.3,1099.9c-0.3-0.1-0.5-0.3-0.7-0.5c-3-3.2-3.7-7.1-1.9-10.4c1.9-3.4,5.9-5.3,9.6-4.6
							c1,0.2,1.7,1.2,1.5,2.2c-0.2,1-1.2,1.7-2.2,1.5c-2-0.4-4.4,0.8-5.5,2.7c-1,1.9-0.6,4,1.3,5.9c0.7,0.8,0.7,2-0.1,2.7
							C511.7,1100,510.9,1100.1,510.3,1099.9z"/>
					</g>
				</g>
			</g>
			<path class="st4" d="M416.9,1438.4c35.8,7.3,100.2,19.9,134.3,6.7c12.9-18.5,16.2-123.2,16.2-123.2
				c3.7-107.7-9.2-123.7-38.3-159.8c-12.2,5.6-42.8,10.4-56.3,10.5c0,0-30.5,42.3-36.4,73.1c-6,31.2-6.7,86.6-7.3,118.3
				C428.5,1399.2,421.5,1416.2,416.9,1438.4z"/>
			<path class="st8" d="M533.3,1194.8c21,40.8,16.2,86-44.7,174.9c-42.7-3.7-51-39.3-51-39.3s11.7-44.2,27-99.7
				C479.7,1175.1,524.2,1176.9,533.3,1194.8z"/>
			<path class="st8" d="M347,1321.9l91.4,7.3c0,0,39.2-7.1,50.2,40.5c-19.6,15.3-70.2,21-153.3-9.8
				C344.1,1347.9,347,1321.9,347,1321.9z"/>
			<polygon class="st1" points="473.1,1169.5 472.2,1194.1 534,1168.2 526.5,1148.3 			"/>
		</g>
	</g>
	<g>
		<path class="st15" d="M934.5,574.1c-20.2,46.1-74,67.2-120.1,47c-46.1-20.2-67.2-74-47-120.1c20.2-46.1,74-67.2,120.1-47
			C933.7,474.2,954.7,527.9,934.5,574.1z"/>
		<path class="st16" d="M919.6,567.5c-18,42.3-71.8,58-109.8,32.5c-24.2-15.8-37.4-45.2-32.8-74c7.1-48.6,60.3-77,104.1-57.2
			C918.2,484.8,936.4,529.8,919.6,567.5z"/>
		<g>
			<path class="st15" d="M845.8,600.5l0-15.5c-8.9-0.1-18.1-2.9-23.5-6.7l3.7-10.3c5.5,3.7,13.5,6.6,22.1,6.5
				c10.9,0,18.3-6.3,18.2-15.1c0-8.4-6-13.6-17.4-18.2c-15.7-6.1-25.4-13.1-25.4-26.5c0-12.7,9-22.4,23.1-24.8l0-15.5l9.5,0l0,14.9
				c9.2,0.3,15.5,2.7,20,5.3l-3.8,10.1c-3.2-1.8-9.5-5.2-19.4-5.2c-11.8,0-16.3,7.1-16.2,13.2c0,8,5.7,12,19.1,17.5
				c15.8,6.4,23.8,14.4,23.9,28c0,12.1-8.4,23.5-24.2,26.2l0,16L845.8,600.5z"/>
		</g>
	</g>
	<g>
		<path class="st15" d="M1098.1,309.5c-20.2,46.1-74,67.2-120.1,47c-46.1-20.2-67.2-74-47-120.1c20.2-46.1,74-67.2,120.1-47
			C1097.3,209.6,1118.3,263.4,1098.1,309.5z"/>
		<path class="st16" d="M1083.2,303c-18,42.3-71.8,58-109.8,32.5c-24.2-15.8-37.4-45.2-32.8-74c7.1-48.6,60.3-77,104.1-57.2
			C1081.8,220.3,1100,265.2,1083.2,303z"/>
		<g>
			<path class="st15" d="M1009.4,335.9l0-15.5c-8.9-0.1-18.1-2.9-23.5-6.7l3.7-10.3c5.5,3.7,13.5,6.6,22.1,6.5
				c10.9,0,18.3-6.3,18.2-15.1c0-8.4-6-13.6-17.4-18.2c-15.7-6.1-25.4-13.1-25.4-26.5c0-12.7,9-22.4,23.1-24.8l0-15.5l9.5,0l0,14.9
				c9.2,0.3,15.5,2.7,20,5.3l-3.8,10.1c-3.2-1.8-9.5-5.2-19.4-5.2c-11.8,0-16.3,7.1-16.2,13.2c0,8,5.7,12,19.1,17.5
				c15.8,6.4,23.8,14.4,23.9,28c0,12.1-8.4,23.5-24.2,26.2l0,16L1009.4,335.9z"/>
		</g>
	</g>
	<g>
		
			<ellipse transform="matrix(0.988 -0.1545 0.1545 0.988 -21.6271 267.5376)" class="st15" cx="1710.7" cy="272.9" rx="91.2" ry="91.2"/>
		<path class="st16" d="M1779.3,303c-18,42.3-71.8,58-109.8,32.5c-24.2-15.8-37.4-45.2-32.8-74c7.1-48.6,60.3-77,104.1-57.2
			C1778,220.3,1796.2,265.2,1779.3,303z"/>
		<g>
			<path class="st15" d="M1705.6,335.9l0-15.5c-8.9-0.1-18.1-2.9-23.5-6.7l3.7-10.3c5.5,3.7,13.5,6.6,22.1,6.5
				c10.9,0,18.3-6.3,18.2-15.1c0-8.4-6-13.6-17.4-18.2c-15.7-6.1-25.4-13.1-25.4-26.5c0-12.7,9-22.4,23.1-24.8l0-15.5l9.5,0l0,14.9
				c9.2,0.3,15.5,2.7,20,5.3l-3.8,10.1c-3.2-1.8-9.5-5.2-19.4-5.2c-11.8,0-16.3,7.1-16.2,13.2c0,8,5.7,12,19.1,17.5
				c15.8,6.4,23.8,14.4,23.9,28c0,12.1-8.4,23.5-24.2,26.2l0,16L1705.6,335.9z"/>
		</g>
	</g>
	<g>
		<path class="st15" d="M1980.1,574.1c-20.2,46.1-74,67.2-120.1,47c-46.1-20.2-67.2-74-47-120.1c20.2-46.1,74-67.2,120.1-47
			C1979.3,474.2,2000.3,527.9,1980.1,574.1z"/>
		<path class="st16" d="M1965.2,567.5c-18,42.3-71.8,58-109.8,32.5c-24.2-15.8-37.4-45.2-32.8-74c7.1-48.6,60.3-77,104.1-57.2
			C1963.8,484.8,1982,529.8,1965.2,567.5z"/>
		<g>
			<path class="st15" d="M1891.4,600.5l0-15.5c-8.9-0.1-18.1-2.9-23.5-6.7l3.7-10.3c5.5,3.7,13.5,6.6,22.1,6.5
				c10.9,0,18.3-6.3,18.2-15.1c0-8.4-6-13.6-17.4-18.2c-15.7-6.1-25.4-13.1-25.4-26.5c0-12.7,9-22.4,23.1-24.8l0-15.5l9.5,0l0,14.9
				c9.2,0.3,15.5,2.7,20,5.3l-3.8,10.1c-3.2-1.8-9.5-5.2-19.4-5.2c-11.8,0-16.3,7.1-16.2,13.2c0,8,5.7,12,19.1,17.5
				c15.8,6.4,23.8,14.4,23.9,28c0,12.1-8.4,23.5-24.2,26.2l0,16L1891.4,600.5z"/>
		</g>
	</g>
	<g>
		<path class="st15" d="M1473.1,197.1c-20.2,46.1-74,67.2-120.1,47c-46.1-20.2-67.2-74-47-120.1c20.2-46.1,74-67.2,120.1-47
			C1472.3,97.2,1493.3,151,1473.1,197.1z"/>
		<path class="st16" d="M1458.2,190.6c-18,42.3-71.8,58-109.8,32.5c-24.2-15.8-37.4-45.2-32.8-74c7.1-48.6,60.3-77,104.1-57.2
			C1456.9,107.9,1475,152.8,1458.2,190.6z"/>
		<g>
			<path class="st15" d="M1384.4,223.5l0-15.5c-8.9-0.1-18.1-2.9-23.5-6.7l3.7-10.3c5.5,3.7,13.5,6.6,22.1,6.5
				c10.9,0,18.3-6.3,18.2-15.1c0-8.4-6-13.6-17.4-18.2c-15.7-6.1-25.4-13.1-25.4-26.5c0-12.7,9-22.4,23.1-24.8l0-15.5l9.5,0l0,14.9
				c9.2,0.3,15.5,2.7,20,5.3l-3.8,10.1c-3.2-1.8-9.5-5.2-19.4-5.2c-11.8,0-16.3,7.1-16.2,13.2c0,8,5.7,12,19.1,17.4
				c15.8,6.4,23.8,14.4,23.9,28c0,12.1-8.4,23.5-24.2,26.2l0,16L1384.4,223.5z"/>
		</g>
	</g>
	<g>
		<g>
			<g>
				<g>
					<path class="st3" d="M1751.2,680.1c-4.4,0-8-3.6-8-8c0-6.5-0.2-13.1-0.5-19.6c-0.2-4.4,3.2-8.2,7.6-8.4
						c4.4-0.2,8.2,3.2,8.4,7.6c0.3,6.8,0.5,13.6,0.5,20.4C1759.2,676.5,1755.6,680.1,1751.2,680.1z"/>
				</g>
				<g>
					<path class="st3" d="M1746.5,619.8c-3.9,0-7.3-2.8-7.9-6.8c-2-13-4.8-26.1-8.2-38.8c-1.1-4.3,1.4-8.7,5.7-9.8
						c4.3-1.1,8.7,1.4,9.8,5.7c3.5,13.3,6.4,26.9,8.5,40.4c0.7,4.4-2.3,8.5-6.7,9.1C1747.4,619.8,1747,619.8,1746.5,619.8z
						 M983,619.5c-0.4,0-0.8,0-1.3-0.1c-4.4-0.7-7.3-4.8-6.7-9.1c2.1-13.6,5-27.2,8.6-40.4c1.1-4.3,5.5-6.8,9.8-5.7
						c4.3,1.1,6.8,5.5,5.7,9.8c-3.4,12.7-6.2,25.7-8.2,38.8C990.2,616.7,986.8,619.5,983,619.5z M1725.7,541.7c-3.2,0-6.3-2-7.5-5.1
						c-4.7-12.3-10.1-24.5-16.1-36.2c-2-3.9-0.4-8.8,3.5-10.8c3.9-2,8.8-0.4,10.8,3.5c6.2,12.2,11.9,24.9,16.8,37.8
						c1.6,4.1-0.5,8.8-4.6,10.3C1727.6,541.6,1726.7,541.7,1725.7,541.7z M1003.8,541.4c-1,0-1.9-0.2-2.9-0.5
						c-4.1-1.6-6.2-6.2-4.6-10.3c4.9-12.8,10.6-25.5,16.8-37.7c2-3.9,6.8-5.5,10.8-3.5c3.9,2,5.5,6.8,3.5,10.8
						c-6,11.7-11.4,23.9-16.1,36.2C1010.1,539.5,1007.1,541.4,1003.8,541.4z M1689,469.7c-2.6,0-5.2-1.3-6.7-3.6
						c-7.2-11-15-21.8-23.3-32.1c-2.8-3.4-2.3-8.5,1.2-11.3c3.4-2.8,8.5-2.3,11.3,1.2c8.6,10.7,16.8,21.9,24.3,33.4
						c2.4,3.7,1.4,8.7-2.3,11.1C1692,469.3,1690.5,469.7,1689,469.7z M1040.6,469.5c-1.5,0-3-0.4-4.4-1.3c-3.7-2.4-4.8-7.4-2.3-11.1
						c7.5-11.5,15.7-22.7,24.3-33.4c2.8-3.4,7.8-4,11.3-1.2c3.4,2.8,4,7.8,1.2,11.3c-8.3,10.2-16.1,21-23.3,32
						C1045.8,468.2,1043.2,469.5,1040.6,469.5z M1638.1,406.9c-2,0-4.1-0.8-5.7-2.3c-9.3-9.3-19.2-18.2-29.4-26.5
						c-3.4-2.8-4-7.8-1.2-11.3c2.8-3.4,7.8-4,11.3-1.2c10.7,8.6,21,17.9,30.7,27.7c3.1,3.1,3.1,8.2,0,11.3
						C1642.2,406.1,1640.2,406.9,1638.1,406.9z M1091.5,406.7c-2,0-4.1-0.8-5.7-2.3c-3.1-3.1-3.1-8.2,0-11.3
						c9.7-9.7,20-19,30.7-27.6c3.4-2.8,8.5-2.3,11.3,1.2c2.8,3.4,2.3,8.5-1.2,11.3c-10.2,8.3-20.1,17.2-29.5,26.5
						C1095.6,406,1093.5,406.7,1091.5,406.7z M1575.4,356c-1.5,0-3-0.4-4.4-1.3c-11-7.2-22.6-13.9-34.3-19.9
						c-3.9-2-5.5-6.8-3.5-10.8c2-3.9,6.8-5.5,10.8-3.5c12.2,6.2,24.2,13.2,35.7,20.7c3.7,2.4,4.8,7.4,2.3,11.1
						C1580.5,354.7,1578,356,1575.4,356z M1154.3,355.9c-2.6,0-5.2-1.3-6.7-3.6c-2.4-3.7-1.4-8.7,2.3-11.1
						c11.5-7.5,23.5-14.4,35.8-20.7c3.9-2,8.8-0.4,10.8,3.5c2,3.9,0.4,8.8-3.5,10.8c-11.7,6-23.3,12.7-34.3,19.8
						C1157.3,355.4,1155.8,355.9,1154.3,355.9z M1503.4,319.2c-1,0-1.9-0.2-2.9-0.5c-12.3-4.7-25-8.8-37.7-12.3
						c-4.3-1.1-6.8-5.5-5.7-9.8c1.1-4.3,5.5-6.8,9.8-5.7c13.3,3.5,26.5,7.8,39.3,12.8c4.1,1.6,6.2,6.2,4.6,10.3
						C1509.7,317.3,1506.6,319.2,1503.4,319.2z M1226.3,319.1c-3.2,0-6.2-2-7.5-5.1c-1.6-4.1,0.5-8.8,4.6-10.3
						c12.8-4.9,26-9.2,39.3-12.7c4.3-1.1,8.7,1.4,9.8,5.7c1.1,4.3-1.4,8.7-5.7,9.8c-12.7,3.4-25.4,7.5-37.7,12.2
						C1228.2,319,1227.3,319.1,1226.3,319.1z M1425.4,298.3c-0.4,0-0.8,0-1.3-0.1c-13-2-26.2-3.4-39.4-4.1c-4.4-0.2-7.8-4-7.6-8.4
						c0.2-4.4,4-7.8,8.4-7.6c13.7,0.7,27.5,2.2,41.1,4.3c4.4,0.7,7.3,4.8,6.7,9.1C1432.6,295.5,1429.2,298.3,1425.4,298.3z
						 M1304.4,298.3c-3.9,0-7.3-2.8-7.9-6.8c-0.7-4.4,2.3-8.5,6.7-9.1c13.5-2.1,27.3-3.6,41.1-4.3c4.4-0.2,8.2,3.2,8.4,7.6
						c0.2,4.4-3.2,8.2-7.6,8.4c-13.2,0.7-26.4,2-39.4,4.1C1305.2,298.3,1304.8,298.3,1304.4,298.3z"/>
				</g>
				<g>
					<path class="st3" d="M978.2,680.1c-4.4,0-8-3.6-8-8c0-6.8,0.2-13.6,0.5-20.4c0.2-4.4,4-7.8,8.4-7.6c4.4,0.2,7.8,4,7.6,8.4
						c-0.3,6.5-0.5,13.1-0.5,19.6C986.2,676.5,982.6,680.1,978.2,680.1z"/>
				</g>
			</g>
		</g>
		<g>
			<g>
				<g>
					<path class="st3" d="M1086.5,680.1c-4.4,0-8-3.6-8-8c0-6.8,0.2-13.8,0.7-20.6c0.3-4.4,4.1-7.7,8.5-7.4c4.4,0.3,7.7,4.1,7.4,8.5
						c-0.5,6.4-0.7,13-0.7,19.4C1094.5,676.5,1090.9,680.1,1086.5,680.1z"/>
				</g>
				<g>
					<path class="st3" d="M1092.9,620.8c-0.6,0-1.1-0.1-1.7-0.2c-4.3-0.9-7.1-5.2-6.1-9.5c2.9-13.3,6.8-26.5,11.5-39.2
						c1.5-4.1,6.2-6.2,10.3-4.7c4.1,1.5,6.2,6.2,4.7,10.3c-4.5,12-8.1,24.5-10.9,37C1099.9,618.3,1096.5,620.8,1092.9,620.8z
						 M1636.6,620.6c-3.7,0-7-2.6-7.8-6.3c-2.7-12.5-6.4-25-10.9-37c-1.5-4.1,0.5-8.7,4.7-10.3c4.1-1.5,8.7,0.5,10.3,4.7
						c4.8,12.7,8.6,25.9,11.5,39.2c0.9,4.3-1.8,8.6-6.1,9.5C1637.7,620.6,1637.1,620.6,1636.6,620.6z M1120.5,546.7
						c-1.3,0-2.6-0.3-3.8-1c-3.9-2.1-5.3-7-3.2-10.9c6.5-11.9,14-23.4,22.1-34.3c2.7-3.5,7.7-4.2,11.2-1.6c3.5,2.7,4.3,7.7,1.6,11.2
						c-7.7,10.3-14.7,21.2-20.9,32.4C1126.1,545.2,1123.4,546.7,1120.5,546.7z M1608.8,546.5c-2.8,0-5.6-1.5-7-4.2
						c-6.2-11.2-13.2-22.1-20.9-32.4c-2.7-3.5-1.9-8.5,1.6-11.2c3.5-2.7,8.5-1.9,11.2,1.6c8.2,10.9,15.6,22.4,22.1,34.3
						c2.1,3.9,0.7,8.7-3.2,10.9C1611.5,546.2,1610.1,546.5,1608.8,546.5z M1168.1,483.3c-2,0-4.1-0.8-5.7-2.3
						c-3.1-3.1-3.1-8.2,0-11.3c9.6-9.6,20-18.6,30.8-26.7c3.5-2.6,8.5-1.9,11.2,1.6c2.6,3.5,1.9,8.6-1.6,11.2
						c-10.3,7.7-20,16.2-29.1,25.2C1172.1,482.6,1170.1,483.3,1168.1,483.3z M1561.3,483.2c-2,0-4.1-0.8-5.7-2.3
						c-9.1-9.1-18.9-17.6-29.1-25.2c-3.5-2.6-4.3-7.7-1.6-11.2c2.6-3.5,7.7-4.3,11.2-1.6c10.9,8.1,21.2,17.1,30.9,26.7
						c3.1,3.1,3.1,8.2,0,11.3C1565.4,482.5,1563.4,483.2,1561.3,483.2z M1231.4,435.9c-2.8,0-5.6-1.5-7-4.2
						c-2.1-3.9-0.7-8.7,3.2-10.9c11.9-6.5,24.4-12.2,37.1-17c4.1-1.5,8.7,0.6,10.3,4.7c1.5,4.1-0.6,8.7-4.7,10.3
						c-12,4.5-23.8,9.9-35,16C1234,435.6,1232.7,435.9,1231.4,435.9z M1497.9,435.8c-1.3,0-2.6-0.3-3.8-1
						c-11.3-6.2-23.1-11.5-35.1-16c-4.1-1.5-6.2-6.1-4.7-10.3c1.5-4.1,6.1-6.2,10.3-4.7c12.7,4.7,25.2,10.4,37.1,17
						c3.9,2.1,5.3,7,3.2,10.9C1503.5,434.3,1500.8,435.8,1497.9,435.8z M1305.5,408.2c-3.7,0-7-2.6-7.8-6.3
						c-0.9-4.3,1.8-8.6,6.1-9.5c13.2-2.9,26.8-4.8,40.4-5.8c4.4-0.3,8.2,3,8.5,7.4s-3,8.2-7.4,8.5c-12.8,0.9-25.6,2.7-38.1,5.4
						C1306.6,408.2,1306.1,408.2,1305.5,408.2z M1423.7,408.2c-0.6,0-1.1-0.1-1.7-0.2c-12.5-2.7-25.3-4.5-38.1-5.4
						c-4.4-0.3-7.7-4.1-7.4-8.5c0.3-4.4,4.1-7.7,8.5-7.4c13.6,1,27.2,2.9,40.4,5.7c4.3,0.9,7.1,5.2,6.1,9.5
						C1430.7,405.6,1427.4,408.2,1423.7,408.2z"/>
				</g>
				<g>
					<path class="st3" d="M1642.9,680.1c-4.4,0-8-3.6-8-8c0-6.5-0.2-13-0.7-19.4c-0.3-4.4,3-8.2,7.4-8.5c4.4-0.3,8.2,3,8.5,7.4
						c0.5,6.8,0.7,13.7,0.7,20.6C1650.9,676.5,1647.4,680.1,1642.9,680.1z"/>
				</g>
			</g>
		</g>
		<g>
			<path class="st3" d="M1749.8,684.8C1749.8,684.8,1749.7,684.8,1749.8,684.8c-1.6,0-3.1-0.8-4-2l-51.1-68.7c-1.6-2.2-1.2-5.3,1-7
				c2.2-1.6,5.3-1.2,7,1l47.2,63.5l47-58.4c1.7-2.1,4.9-2.5,7-0.8c2.1,1.7,2.5,4.9,0.8,7l-51.1,63.4
				C1752.8,684.1,1751.3,684.8,1749.8,684.8z"/>
		</g>
		<g>
			<path class="st3" d="M1086.4,684.8C1086.3,684.8,1086.3,684.8,1086.4,684.8c-1.6,0-3.1-0.8-4-2l-51.1-68.7c-1.6-2.2-1.2-5.3,1-7
				c2.2-1.6,5.3-1.2,7,1l47.2,63.5l47-58.4c1.7-2.1,4.9-2.5,7-0.8c2.1,1.7,2.5,4.9,0.8,7l-51.1,63.4
				C1089.3,684.1,1087.9,684.8,1086.4,684.8z"/>
		</g>
	</g>
	<g>
		<g>
			<g>
				<path class="st16" d="M2101.6,1762.2v20.3c0,7.9-6.4,14.3-14.3,14.3H1840c-7.9,0-14.3-6.4-14.3-14.3v-20.3
					c0-3.5,1.3-6.8,3.4-9.3c2.6-3.1,6.6-5.1,10.9-5.1h247.3c4.4,0,8.3,2,10.9,5.1C2100.3,1755.5,2101.6,1758.7,2101.6,1762.2z"/>
				<rect x="1839.3" y="1747.9" class="st15" width="7.2" height="48.9"/>
				<rect x="1869.5" y="1747.9" class="st15" width="7.2" height="48.9"/>
				<rect x="1899.6" y="1747.9" class="st15" width="7.2" height="48.9"/>
				<rect x="1929.7" y="1747.9" class="st15" width="7.2" height="48.9"/>
				<rect x="1959.8" y="1747.9" class="st15" width="7.2" height="48.9"/>
				<rect x="1989.9" y="1747.9" class="st15" width="7.2" height="48.9"/>
				<rect x="2020.1" y="1747.9" class="st15" width="7.2" height="48.9"/>
				<rect x="2050.2" y="1747.9" class="st15" width="7.2" height="48.9"/>
				<rect x="2080.3" y="1747.9" class="st15" width="7.2" height="48.9"/>
				<path class="st15" d="M2098.2,1753H1829c2.6-3.1,6.6-5.1,10.9-5.1h247.3C2091.6,1747.9,2095.6,1749.8,2098.2,1753z"/>
				<path class="st15" d="M2098.2,1791.7H1829c2.6,3.1,6.6,5.1,10.9,5.1h247.3C2091.6,1796.8,2095.6,1794.8,2098.2,1791.7z"/>
			</g>
			<g>
				<path class="st16" d="M2118.9,1713.3v20.3c0,7.9-6.4,14.3-14.3,14.3h-247.3c-7.9,0-14.3-6.4-14.3-14.3v-20.3
					c0-3.5,1.3-6.8,3.4-9.3c2.6-3.1,6.6-5.1,10.9-5.1h247.3c4.4,0,8.3,2,10.9,5.1C2117.6,1706.5,2118.9,1709.8,2118.9,1713.3z"/>
				<rect x="1856.6" y="1699" class="st15" width="7.2" height="48.9"/>
				<rect x="1886.8" y="1699" class="st15" width="7.2" height="48.9"/>
				<rect x="1916.9" y="1699" class="st15" width="7.2" height="48.9"/>
				<rect x="1947" y="1699" class="st15" width="7.2" height="48.9"/>
				<rect x="1977.1" y="1699" class="st15" width="7.2" height="48.9"/>
				<rect x="2007.2" y="1699" class="st15" width="7.2" height="48.9"/>
				<rect x="2037.4" y="1699" class="st15" width="7.2" height="48.9"/>
				<rect x="2067.5" y="1699" class="st15" width="7.2" height="48.9"/>
				<rect x="2097.6" y="1699" class="st15" width="7.2" height="48.9"/>
				<path class="st15" d="M2115.5,1704h-269.2c2.6-3.1,6.6-5.1,10.9-5.1h247.3C2108.9,1698.9,2112.9,1700.9,2115.5,1704z"/>
				<path class="st15" d="M2115.5,1742.8h-269.2c2.6,3.1,6.6,5.1,10.9,5.1h247.3C2108.9,1747.9,2112.9,1745.9,2115.5,1742.8z"/>
			</g>
			<g>
				<path class="st16" d="M2105.5,1664.4v20.3c0,7.9-6.4,14.3-14.3,14.3h-247.3c-7.9,0-14.3-6.4-14.3-14.3v-20.3
					c0-3.5,1.3-6.8,3.4-9.3c2.6-3.1,6.6-5.1,10.9-5.1h247.3c4.4,0,8.3,2,10.9,5.1C2104.2,1657.7,2105.5,1660.9,2105.5,1664.4z"/>
				<rect x="1843.2" y="1650.1" class="st15" width="7.2" height="48.9"/>
				<rect x="1873.4" y="1650.1" class="st15" width="7.2" height="48.9"/>
				<rect x="1903.5" y="1650.1" class="st15" width="7.2" height="48.9"/>
				<rect x="1933.6" y="1650.1" class="st15" width="7.2" height="48.9"/>
				<rect x="1963.7" y="1650.1" class="st15" width="7.2" height="48.9"/>
				<rect x="1993.8" y="1650.1" class="st15" width="7.2" height="48.9"/>
				<rect x="2023.9" y="1650.1" class="st15" width="7.2" height="48.9"/>
				<rect x="2054.1" y="1650.1" class="st15" width="7.2" height="48.9"/>
				<rect x="2084.2" y="1650.1" class="st15" width="7.2" height="48.9"/>
				<path class="st15" d="M2102.1,1655.2h-269.2c2.6-3.1,6.6-5.1,10.9-5.1h247.3C2095.5,1650.1,2099.4,1652.1,2102.1,1655.2z"/>
				<path class="st15" d="M2102.1,1694h-269.2c2.6,3.1,6.6,5.1,10.9,5.1h247.3C2095.5,1699,2099.4,1697.1,2102.1,1694z"/>
			</g>
			<g>
				<path class="st16" d="M2111,1616.5v20.3c0,7.9-6.4,14.3-14.3,14.3h-247.3c-7.9,0-14.3-6.4-14.3-14.3v-20.3
					c0-3.5,1.3-6.8,3.4-9.3c2.6-3.1,6.6-5.1,10.9-5.1h247.3c4.4,0,8.3,2,10.9,5.1C2109.7,1609.7,2111,1613,2111,1616.5z"/>
				<rect x="1848.8" y="1602.2" class="st15" width="7.2" height="48.9"/>
				<rect x="1878.9" y="1602.2" class="st15" width="7.2" height="48.9"/>
				<rect x="1909" y="1602.2" class="st15" width="7.2" height="48.9"/>
				<rect x="1939.1" y="1602.2" class="st15" width="7.2" height="48.9"/>
				<rect x="1969.2" y="1602.2" class="st15" width="7.2" height="48.9"/>
				<rect x="1999.3" y="1602.2" class="st15" width="7.2" height="48.9"/>
				<rect x="2029.5" y="1602.2" class="st15" width="7.2" height="48.9"/>
				<rect x="2059.6" y="1602.2" class="st15" width="7.2" height="48.9"/>
				<rect x="2089.7" y="1602.2" class="st15" width="7.2" height="48.9"/>
				<path class="st15" d="M2107.6,1607.2h-269.2c2.6-3.1,6.6-5.1,10.9-5.1h247.3C2101,1602.2,2105,1604.1,2107.6,1607.2z"/>
				<path class="st15" d="M2107.6,1646h-269.2c2.6,3.1,6.6,5.1,10.9,5.1h247.3C2101,1651.1,2105,1649.1,2107.6,1646z"/>
			</g>
			<g>
				<path class="st16" d="M2080.2,1566.8v20.3c0,7.9-6.4,14.3-14.3,14.3h-247.3c-7.9,0-14.3-6.4-14.3-14.3v-20.3
					c0-3.5,1.3-6.8,3.4-9.3c2.6-3.1,6.6-5.1,10.9-5.1h247.3c4.4,0,8.3,2,10.9,5.1C2078.9,1560.1,2080.2,1563.3,2080.2,1566.8z"/>
				<rect x="1817.9" y="1552.5" class="st15" width="7.2" height="48.9"/>
				<rect x="1848" y="1552.5" class="st15" width="7.2" height="48.9"/>
				<rect x="1878.2" y="1552.5" class="st15" width="7.2" height="48.9"/>
				<rect x="1908.3" y="1552.5" class="st15" width="7.2" height="48.9"/>
				<rect x="1938.4" y="1552.5" class="st15" width="7.2" height="48.9"/>
				<rect x="1968.5" y="1552.5" class="st15" width="7.2" height="48.9"/>
				<rect x="1998.6" y="1552.5" class="st15" width="7.2" height="48.9"/>
				<rect x="2028.8" y="1552.5" class="st15" width="7.2" height="48.9"/>
				<rect x="2058.9" y="1552.5" class="st15" width="7.2" height="48.9"/>
				<path class="st15" d="M2076.8,1557.6h-269.2c2.6-3.1,6.6-5.1,10.9-5.1h247.3C2070.2,1552.5,2074.1,1554.5,2076.8,1557.6z"/>
				<path class="st15" d="M2076.8,1596.3h-269.2c2.6,3.1,6.6,5.1,10.9,5.1h247.3C2070.2,1601.4,2074.1,1599.4,2076.8,1596.3z"/>
			</g>
			<g>
				<path class="st16" d="M2110.5,1518.5v20.3c0,7.9-6.4,14.3-14.3,14.3h-247.3c-7.9,0-14.3-6.4-14.3-14.3v-20.3
					c0-3.5,1.3-6.8,3.4-9.3c2.6-3.1,6.6-5.1,10.9-5.1h247.3c4.4,0,8.3,2,10.9,5.1C2109.2,1511.7,2110.5,1514.9,2110.5,1518.5z"/>
				<rect x="1848.3" y="1504.1" class="st15" width="7.2" height="48.9"/>
				<rect x="1878.4" y="1504.1" class="st15" width="7.2" height="48.9"/>
				<rect x="1908.5" y="1504.1" class="st15" width="7.2" height="48.9"/>
				<rect x="1938.6" y="1504.1" class="st15" width="7.2" height="48.9"/>
				<rect x="1968.7" y="1504.1" class="st15" width="7.2" height="48.9"/>
				<rect x="1998.9" y="1504.1" class="st15" width="7.2" height="48.9"/>
				<rect x="2029" y="1504.1" class="st15" width="7.2" height="48.9"/>
				<rect x="2059.1" y="1504.1" class="st15" width="7.2" height="48.9"/>
				<rect x="2089.2" y="1504.1" class="st15" width="7.2" height="48.9"/>
				<path class="st15" d="M2107.1,1509.2h-269.2c2.6-3.1,6.6-5.1,10.9-5.1h247.3C2100.5,1504.1,2104.5,1506.1,2107.1,1509.2z"/>
				<path class="st15" d="M2107.1,1548h-269.2c2.6,3.1,6.6,5.1,10.9,5.1h247.3C2100.5,1553.1,2104.5,1551.1,2107.1,1548z"/>
			</g>
			<g>
				<path class="st16" d="M2099.7,1469.4v20.3c0,7.9-6.4,14.3-14.3,14.3h-247.3c-7.9,0-14.3-6.4-14.3-14.3v-20.3
					c0-3.5,1.3-6.8,3.4-9.3c2.6-3.1,6.6-5.1,10.9-5.1h247.3c4.4,0,8.3,2,10.9,5.1C2098.5,1462.6,2099.7,1465.9,2099.7,1469.4z"/>
				<rect x="1837.5" y="1455.1" class="st15" width="7.2" height="48.9"/>
				<rect x="1867.6" y="1455.1" class="st15" width="7.2" height="48.9"/>
				<rect x="1897.7" y="1455.1" class="st15" width="7.2" height="48.9"/>
				<rect x="1927.9" y="1455.1" class="st15" width="7.2" height="48.9"/>
				<rect x="1958" y="1455.1" class="st15" width="7.2" height="48.9"/>
				<rect x="1988.1" y="1455.1" class="st15" width="7.2" height="48.9"/>
				<rect x="2018.2" y="1455.1" class="st15" width="7.2" height="48.9"/>
				<rect x="2048.3" y="1455.1" class="st15" width="7.2" height="48.9"/>
				<rect x="2078.5" y="1455.1" class="st15" width="7.2" height="48.9"/>
				<path class="st15" d="M2096.4,1460.1h-269.2c2.6-3.1,6.6-5.1,10.9-5.1h247.3C2089.8,1455.1,2093.7,1457,2096.4,1460.1z"/>
				<path class="st15" d="M2096.4,1498.9h-269.2c2.6,3.1,6.6,5.1,10.9,5.1h247.3C2089.8,1504,2093.7,1502,2096.4,1498.9z"/>
			</g>
			<g>
				<path class="st16" d="M2114.5,1420.7v20.3c0,7.9-6.4,14.3-14.3,14.3h-247.3c-7.9,0-14.3-6.4-14.3-14.3v-20.3
					c0-3.5,1.3-6.8,3.4-9.3c2.6-3.1,6.6-5.1,10.9-5.1h247.3c4.4,0,8.3,2,10.9,5.1C2113.2,1414,2114.5,1417.2,2114.5,1420.7z"/>
				<rect x="1852.3" y="1406.4" class="st15" width="7.2" height="48.9"/>
				<rect x="1882.4" y="1406.4" class="st15" width="7.2" height="48.9"/>
				<rect x="1912.5" y="1406.4" class="st15" width="7.2" height="48.9"/>
				<rect x="1942.6" y="1406.4" class="st15" width="7.2" height="48.9"/>
				<rect x="1972.8" y="1406.4" class="st15" width="7.2" height="48.9"/>
				<rect x="2002.9" y="1406.4" class="st15" width="7.2" height="48.9"/>
				<rect x="2033" y="1406.4" class="st15" width="7.2" height="48.9"/>
				<rect x="2063.1" y="1406.4" class="st15" width="7.2" height="48.9"/>
				<rect x="2093.2" y="1406.4" class="st15" width="7.2" height="48.9"/>
				<path class="st15" d="M2111.1,1411.5H1842c2.6-3.1,6.6-5.1,10.9-5.1h247.3C2104.6,1406.4,2108.5,1408.4,2111.1,1411.5z"/>
				<path class="st15" d="M2111.1,1450.3H1842c2.6,3.1,6.6,5.1,10.9,5.1h247.3C2104.6,1455.3,2108.5,1453.4,2111.1,1450.3z"/>
			</g>
		</g>
		<g>
			
				<ellipse transform="matrix(0.9497 -0.3132 0.3132 0.9497 -425.0992 656.5093)" class="st15" cx="1831" cy="1651.5" rx="147.6" ry="147.6"/>
			<path class="st16" d="M1946.4,1688.8c-20.6,63.7-88.9,98.7-152.6,78.1c-6.6-2.1-13-4.8-19-7.9c-10.1-5.3-19.3-11.9-27.3-19.5
				c-3-2.9-5.9-5.9-8.6-9.1c-19.9-23.3-30.5-53.7-28.9-85.1c0.5-10.3,2.4-20.6,5.7-30.9c15.3-47.5,57.2-79,104-83.5
				c15.9-1.5,32.4,0.1,48.6,5.4c14,4.5,26.7,11.4,37.6,20c3.3,2.6,6.5,5.3,9.5,8.3c8.1,7.9,15.1,16.8,20.7,26.5
				C1952.5,1619.5,1957.3,1654.8,1946.4,1688.8z"/>
			<path class="st17" d="M1905.9,1556.1l-167,174.1c-19.9-23.3-30.5-53.7-28.9-85.1l109.7-114.3c15.9-1.5,32.4,0.1,48.6,5.4
				C1882.3,1540.7,1894.9,1547.5,1905.9,1556.1z"/>
			<path class="st17" d="M1936,1590.9l-161.2,168c-10.1-5.3-19.3-11.9-27.3-19.5l167.9-175C1923.5,1572.2,1930.4,1581.2,1936,1590.9
				z"/>
			<path class="st1" d="M1839.2,1536.3c-14.3-1.5-16.9-0.1-23.4,12.6c1.6-14.1,0.2-16.8-12.6-23.4c14.3,1.5,16.9,0.1,23.4-12.6
				C1825,1527.2,1826.5,1529.9,1839.2,1536.3z"/>
			<path class="st1" d="M1788.5,1764c-12.1-1.3-14.3-0.1-19.7,10.6c1.3-11.9,0.2-14.1-10.6-19.7c12.1,1.3,14.3,0.1,19.7-10.6
				C1776.6,1756.3,1777.8,1758.5,1788.5,1764z"/>
		</g>
	</g>
	<g>
		<g>
			<path class="st2" d="M1926.7,1161.6c-89.3,0-162-72.7-162-162c0-89.3,72.7-162,162-162c89.3,0,162,72.7,162,162
				C2088.6,1088.9,2016,1161.6,1926.7,1161.6z M1926.7,845.7c-84.9,0-154,69.1-154,154c0,84.9,69.1,154,154,154
				c84.9,0,154-69.1,154-154C2080.6,914.7,2011.6,845.7,1926.7,845.7z"/>
		</g>
		<g>
			<g>
				<path class="st2" d="M1926.7,1091.6c-11.9,0-21.5-9.6-21.5-21.5V772.9c0-11.9,9.6-21.5,21.5-21.5s21.5,9.6,21.5,21.5v297.2
					C1948.2,1081.9,1938.5,1091.6,1926.7,1091.6z"/>
			</g>
		</g>
	</g>
	<g>
		<g>
			<path class="st2" d="M1926.7,1161.6c-89.3,0-162-72.7-162-162c0-89.3,72.7-162,162-162c89.3,0,162,72.7,162,162
				C2088.6,1088.9,2016,1161.6,1926.7,1161.6z M1926.7,845.7c-84.9,0-154,69.1-154,154c0,84.9,69.1,154,154,154
				c84.9,0,154-69.1,154-154C2080.6,914.7,2011.6,845.7,1926.7,845.7z"/>
		</g>
		<g>
			<g>
				<path class="st2" d="M1926.7,1091.6c-11.9,0-21.5-9.6-21.5-21.5V772.9c0-11.9,9.6-21.5,21.5-21.5s21.5,9.6,21.5,21.5v297.2
					C1948.2,1081.9,1938.5,1091.6,1926.7,1091.6z"/>
			</g>
			<g>
				<path class="st2" d="M1928.2,1109.2c-0.3,0-0.6,0-0.8,0c-6.6-0.3-12.7-3.5-16.5-8.8L1821.5,986c-7-9.6-4.9-23,4.7-30
					c9.6-7,23-4.9,30,4.7l73.3,92.4l68.6-93.7c7.7-9,21.3-10.1,30.3-2.4c9,7.7,10.1,21.3,2.4,30.3l-86.3,114.4
					C1940.4,1106.5,1934.4,1109.2,1928.2,1109.2z"/>
			</g>
		</g>
	</g>
	<g>
		<g>
			<path class="st2" d="M853.4,1145.1c-89.3,0-162-72.7-162-162c0-89.3,72.7-162,162-162c89.3,0,162,72.7,162,162
				C1015.3,1072.5,942.7,1145.1,853.4,1145.1z M853.4,829.2c-84.9,0-154,69.1-154,154c0,84.9,69.1,154,154,154s154-69.1,154-154
				C1007.3,898.3,938.3,829.2,853.4,829.2z"/>
		</g>
		<g>
			
				<ellipse transform="matrix(0.7071 -0.7071 0.7071 0.7071 -445.2635 891.3774)" class="st2" cx="853.4" cy="983.2" rx="117.2" ry="117.2"/>
			<path class="st3" d="M942.1,1032.4c-17.2,31.3-50.5,52.5-88.8,52.5c-38.3,0-71.6-21.2-88.8-52.5c10.9-19.4,27.9-34.8,48.5-43.7
				c-8.8-9.7-14.1-22.5-14.1-36.6c0-30.1,24.4-54.4,54.4-54.4c30.1,0,54.4,24.4,54.4,54.4c0,14.1-5.4,26.9-14.1,36.6
				C914.2,997.6,931.2,1013,942.1,1032.4z"/>
		</g>
	</g>
	<g>
		<path class="st15" d="M2095.6,1260.9l-68-36.5c-1.9,3.6-3.8,7.1-5.8,10.7l0,0c-2.8,5.2,10.3,17.6,29.1,27.7
			c18.9,10.1,36.4,14.2,39.2,9C2090.5,1271.3,2095.6,1260.9,2095.6,1260.9z"/>
		<path class="st16" d="M2095.7,1261.7c-2.8,5.2-20.3,1.1-39.2-9c-18.9-10.1-31.9-22.6-29.1-27.7c2.8-5.2,20.3-1.1,39.2,9
			C2085.4,1244.1,2098.5,1256.5,2095.7,1261.7z"/>
	</g>
	<g>
		<path class="st15" d="M1793.7,1398.2l-68.8,11.2c0.6,3.6,1.2,7.2,1.8,10.8l0,0c0.8,5.2,17,7,36.1,3.8c19.1-3.1,33.9-9.9,33-15.1
			C1795.7,1408.5,1793.7,1398.2,1793.7,1398.2z"/>
		<path class="st16" d="M1794.1,1398.7c0.8,5.2-13.9,12-33,15.1c-19.1,3.1-35.3,1.4-36.1-3.8c-0.8-5.2,13.9-12,33-15.1
			C1777.1,1391.8,1793.3,1393.5,1794.1,1398.7z"/>
	</g>
	<g>
		<path class="st15" d="M1875.8,1277.6l-62.5-30.8c-1.6,3.3-3.2,6.6-4.8,9.8l0,0c-2.3,4.8,9.8,15.5,27.2,24.1
			c17.4,8.5,33.3,11.6,35.7,6.9C1871.6,1287.1,1875.8,1277.6,1875.8,1277.6z"/>
		<path class="st16" d="M1875.9,1278.3c-2.3,4.8-18.3,1.7-35.7-6.9c-17.4-8.5-29.5-19.3-27.2-24.1c2.3-4.8,18.3-1.7,35.7,6.9
			C1866.1,1262.7,1878.3,1273.5,1875.9,1278.3z"/>
	</g>
	<g>
		<path class="st15" d="M1782.7,1161.4l-72,11.7c0.6,3.8,1.2,7.5,1.8,11.3l0,0c0.9,5.5,17.8,7.3,37.8,4c20-3.2,35.5-10.3,34.6-15.8
			C1784.8,1172.2,1782.7,1161.4,1782.7,1161.4z"/>
		<path class="st16" d="M1783.2,1162c0.9,5.5-14.6,12.5-34.6,15.8c-20,3.2-36.9,1.4-37.8-4c-0.9-5.5,14.6-12.5,34.6-15.8
			S1782.3,1156.5,1783.2,1162z"/>
	</g>
	<g>
		<path class="st2" d="M1067.8,1403.2H631.3c-19.4,0-35.1-15.7-35.1-35.1v-92.3c0-19.4,15.7-35.1,35.1-35.1h436.6
			c19.4,0,35.1,15.7,35.1,35.1v92.3C1103,1387.5,1087.2,1403.2,1067.8,1403.2z"/>
		<g>
			<path class="st15" d="M753.6,1299.1v45.7c0,12.3-10,22.3-22.3,22.3h-86.5c-4.5,0-8.8-1.4-12.3-3.7c-6-4-10-10.8-10-18.6v-45.7
				c0-12.3,10-22.3,22.3-22.3h86.5c5,0,9.7,1.7,13.4,4.5C750.1,1285.3,753.6,1291.8,753.6,1299.1z"/>
			<path class="st3" d="M929.9,1340.5H786.4c-10.3,0-18.6-8.3-18.6-18.6l0,0c0-10.3,8.3-18.6,18.6-18.6h143.5
				c10.3,0,18.6,8.3,18.6,18.6l0,0C948.5,1332.2,940.2,1340.5,929.9,1340.5z"/>
			<path class="st5" d="M1058.1,1340.5h-71.9c-10.3,0-18.6-8.3-18.6-18.6l0,0c0-10.3,8.3-18.6,18.6-18.6h71.9
				c10.3,0,18.6,8.3,18.6,18.6l0,0C1076.7,1332.2,1068.3,1340.5,1058.1,1340.5z"/>
		</g>
		<path class="st16" d="M744.7,1281.2l-112.2,82.2c-6-4-10-10.8-10-18.6v-45.7c0-12.3,10-22.3,22.3-22.3h86.5
			C736.3,1276.8,741,1278.4,744.7,1281.2z"/>
		<path class="st11" d="M724.6,1341.4c0,8.3-6.7,15-15,15c-8.3,0-15-6.7-15-15c0-8.3,6.7-15,15-15
			C717.9,1326.4,724.6,1333.1,724.6,1341.4z"/>
		<path class="st3" d="M742.4,1341.4c0,8.3-6.7,15-15,15c-8.3,0-15-6.7-15-15c0-8.3,6.7-15,15-15
			C735.7,1326.4,742.4,1333.1,742.4,1341.4z"/>
	</g>
	<g>
		<path class="st14" d="M2332,1136.6c8.7-27.3,6.6-53.8-12.6-71.7c-19.4-18.1-50.6-12.4-50.6-12.4l0,0c0,0-21.8-14.2-49.1,4.4
			c-27.3,18.6-16,43.5-29,58.7c-7.7,9-34.8,4.7-36,39.9c-0.3,10.1,9.7,19.4,19.4,22.4c17,5.3,35.8,1.8,40.1,10.8
			c14.6,30.9,70.8,31.9,82.8,13.5c3.7-5.7,46.8,17.4,52.4-26.2C2352.3,1153.9,2324.2,1161,2332,1136.6z"/>
		<g>
			<path class="st12" d="M2220.7,1125.8c-3.5,33.6,15,63.1,41.4,65.9c26.4,2.8,50.7-22.2,54.2-55.9c3.5-33.6-15-63.1-41.4-65.9
				C2248.5,1067.2,2224.2,1092.2,2220.7,1125.8z"/>
			<path d="M2302,1140c0.3,2.5,2.6,4.3,5.1,4c2.5-0.3,4.3-2.6,4-5.1c-0.3-2.5-2.6-4.3-5.1-4C2303.5,1135.2,2301.7,1137.5,2302,1140z
				"/>
			<path d="M2264.9,1136.4c0.3,2.7,2.8,4.7,5.6,4.4s4.7-2.8,4.4-5.6c-0.3-2.7-2.8-4.7-5.6-4.4
				C2266.5,1131.1,2264.5,1133.6,2264.9,1136.4z"/>
			<g>
				<path class="st14" d="M2261,1130.6c0.4,0,0.7-0.2,1-0.5c4.2-4.3,10.9-3,11-3c0.9,0.2,1.9-0.4,2-1.4c0.2-0.9-0.4-1.9-1.4-2
					c-0.4-0.1-8.6-1.7-14.1,4c-0.7,0.7-0.7,1.8,0,2.5C2260,1130.5,2260.5,1130.7,2261,1130.6z"/>
			</g>
			<g>
				<path class="st14" d="M2313.8,1137.1c0.2,0,0.4-0.1,0.5-0.2c0.9-0.4,1.2-1.5,0.8-2.3c-3.3-6.7-10.1-6.8-10.4-6.8
					c-1,0-1.7,0.8-1.8,1.7c0,1,0.8,1.7,1.7,1.8c0.2,0,5.1,0.2,7.3,4.9C2312.3,1136.8,2313.1,1137.2,2313.8,1137.1z"/>
			</g>
			<path class="st13" d="M2295.9,1148.5c1.5,3.3,2.7,6.6,4.5,8.8c0.6,0.8,0.5,1.9-0.2,2.5c-3,2.6-9.3,3.4-13.1,3.6
				c-0.6,0-0.7-0.7-0.2-0.9c4.4-1.7,6.6-3.4,7.6-4.4c0.5-0.5,0.7-1.2,0.7-1.9c-0.2-1.6-0.6-4.8-0.7-7.4
				C2294.3,1148,2295.5,1147.7,2295.9,1148.5z"/>
			<path class="st1" d="M2260.2,1163.7c-0.4-1.2,0.8-2.2,1.9-1.7c2.8,1.4,7.4,3.5,12,5.2c4.6,1.6,9.6,2.8,12.6,3.5
				c1.2,0.3,1.5,1.8,0.5,2.5c-3.1,2.1-9,4.9-16,2.4C2264.2,1173.1,2261.3,1167.3,2260.2,1163.7z"/>
		</g>
		<path class="st14" d="M2221.1,1122.9c30.4,6.4,81.6-8.8,90.3-22.9c0.8-20.2-25.9-40-45.8-37.5S2216.9,1095.6,2221.1,1122.9z"/>
		<path class="st13" d="M2310.7,1213.8c31.3,7.8,84.9,81,89.9,135.9c-17.2,3.6-36.8-10.1-36.8-10.1l-42.6-61.2L2310.7,1213.8z"/>
		<g>
			<path class="st12" d="M2340.9,1841.7l16.8-66.1l-41.6-5.7c-1.4,31.3-3.8,62-3.6,70.4L2340.9,1841.7z"/>
			<path class="st12" d="M2241.6,1769.5h-43.5c1.4,10.4,7.1,66.8,7.1,66.8c3.7,8.3,36.1,6.4,36.1,1.7
				C2238.9,1827.9,2241.4,1770.8,2241.6,1769.5z"/>
			<path class="st10" d="M2312.7,1795.3l42.9,6.3l29.7-177.7c-6.1-67.5-65.5-211-65.5-211l-66.9,23.4l-1.6,63.3l80.6,136.5
				C2321.3,1662.5,2314.1,1747.9,2312.7,1795.3z"/>
			<path class="st11" d="M2279.6,1417.7c-0.6-4.2-0.8-5.5-4.3-7.6l-64.3-18.2l-15.3,15.1c-14.5,52.6-5.5,125.8,5.9,183.9
				c-16.7,50.3-10.2,153.9-3.5,202.6h45.7c2.7-32.6,1.8-92.9,2-122.1l0,0c5.9-23.4,11.6-48.4,16.7-74.7
				c6.5-33.6,14.7-66.2,16.9-96.6C2281.6,1471.1,2282.2,1440.1,2279.6,1417.7z"/>
		</g>
		<path class="st12" d="M2198.5,1205.8c-15.1,9.9-78.8,92.8-43.7,161c1.6,0.9,29.7-46.7,29.7-46.7l33.2-65.7L2198.5,1205.8z"/>
		<path class="st12" d="M2230.5,1162.7l39.9,22.7c0,0,3.5,16.2,5.3,21.4c3.6,10.8-10.3,15.5-22.1,8.8s-19.5-15.7-19.5-15.7
			L2230.5,1162.7z"/>
		<path class="st4" d="M2329.7,1423.5c0,0-16.5,19.5-19.2,21l-14.7-16.1l-0.1,0.3l-3.5,9.2l-4.1,10.8c-3.4,0-106.3-23-106.3-23
			c0.2-9.3,8.9-39.3,23-71.3c-3.4-27.1-0.1-55.2-1.2-70.8c8.3-41.9,2.4-57.9-5.1-77.7l26.1-7.7l47,16.6l3.5-11.3
			c0,0,29.4,7.1,35.6,10.5l11.1,46.4l-2.4,98.6C2319.4,1358.8,2323.1,1398.6,2329.7,1423.5z"/>
		<path class="st8" d="M2233.6,1192.8l-18.4,7.8c1.9,22.1,51.4,35.3,51.4,35.3l4.9-21.3L2233.6,1192.8z"/>
		<path class="st8" d="M2271.5,1214.6l14.6,16.2c0,0,12.6-13,8-21.1c-4.6-8-21.2-13.5-21.2-13.5L2271.5,1214.6z"/>
		<g>
			<path class="st7" d="M2330.8,1840.6c4.4-11.4,13.7-12.7,13.7-12.7c18.1,24.1,62.5,9.3,61,42c-67.6-0.4-95.6,0-95.6,0
				c0.1-7.5,1.4-25.3,3-32.3l3.5,0.6L2330.8,1840.6z"/>
			<path class="st7" d="M2401.6,1878.6h-87.8c-2.2,0-3.9-1.8-3.9-3.9v-5.7h95.7v5.7C2405.6,1876.8,2403.8,1878.6,2401.6,1878.6z"/>
		</g>
		<g>
			<path class="st8" d="M2295.6,1428.6l-3.5,9.2c-3.2-21.2-15-109.9-8.3-134.4c6.3-23-1.6-47.3-9.1-70.7c-1.8-5.7-3.8-11.7-5.4-17.4
				l2.3-0.7l2.3-0.7c1.6,5.7,3.5,11.6,5.4,17.3c7.8,24.1,15.8,49.1,9.2,73.4C2282.6,1325.8,2291.5,1398.6,2295.6,1428.6z"/>
		</g>
		<g>
			<path class="st7" d="M2249.1,1870.2c0,0-5.4-20.2-5.9-22.8c-0.5-3-2.1-9.9-2.5-13.5c-0.1-0.9-9.4-6.6-16.5-6.6
				c-9.6,0-18.4,5.6-18.6,6.6c-1.1,6.8-1.2,14.7-3,21.3c-1.4,4.9-5.1,16.3-5.1,16.3L2249.1,1870.2z"/>
			<g>
				<g>
					<g>
						<g>
							<path class="st7" d="M2249.1,1868.6c-1.3,4-16.9-0.6-28.2-0.6c-9.6,0-21.9,3.7-23.3,2.3c-2.4,4.2-0.4,13-0.4,13
								s10,0.5,21.9,0c11.9-0.5,25.7,0.2,30.9-1.3C2253.2,1876.4,2249.1,1868.6,2249.1,1868.6z"/>
						</g>
					</g>
				</g>
			</g>
		</g>
		<g>
			<path class="st12" d="M2269,1298.6c0,0-82.3,82.5-114.3,68.2c-10.5-14.3,11.8-42.8,32.8-52.4c20.9-9.5,55.9-24.6,55.9-24.6
				L2269,1298.6z"/>
			<path class="st18" d="M2284.6,1270.6l34.2-26.4c0.7-0.6,1.7-0.8,2.6-0.6l23.3,4.2c0.7,0.1,2,4.2,1.5,4.6l-23.3,14
				c-0.1,0.1-0.2,0.1-0.4,0.2l-36.6,6.3C2285.3,1272.9,2284,1271.1,2284.6,1270.6z"/>
			<path class="st19" d="M2286.4,1273.1l32.5-24.8c0.7-0.6,1.7-0.8,2.6-0.6l24.1,4.1c0.7,0.1,0.9,1,0.3,1.4l-22.9,17.3
				c-0.1,0.1-0.2,0.1-0.4,0.2l-35.7,3.9C2286.2,1274.6,2285.8,1273.6,2286.4,1273.1z"/>
			<path class="st12" d="M2242.6,1290.2l19.2-9.6c0,0,12.2-13.3,16-17.2c4.9-1.4,14.3-5.5,16.3-5.4c1.9,0.1,5.2,1.3,5.2,1.3
				l-11.1,8.7c0,0,4.5,2.1,10.9-0.4c6.4-2.5,18.2-10.3,22.8-7.5c1.5,1.9,1.5,1.9,1.5,1.9s4-3.1,6.4-1c7.5,6.6-40.6,35.3-40.6,35.3
				l-20,2.4L2242.6,1290.2z"/>
			<path class="st18" d="M2322.5,1253.6c-1.4,0.9-3,0.8-3.7-0.2c-0.7-1-0.2-2.6,1.2-3.6c1.4-0.9,3-0.8,3.7,0.2
				C2324.3,1251.1,2323.8,1252.7,2322.5,1253.6z"/>
		</g>
		<path class="st13" d="M2400.5,1349.7c0,0-42.7,48.8-72.4,55.7c-1.8-9.8-3.4-17.3-3.4-17.3l40.5-53.3L2400.5,1349.7z"/>
		<path id="c_4748_" class="st13" d="M2322.8,1408c0.1-0.4,0.4-0.8,0.6-1.1c-0.1,0-0.1,0-0.2-0.1c-4.2-1.4-6.8-5-5.8-8
			c0.2-0.5,0.4-0.9,0.7-1.3c-2.2-1.7-3.4-4.2-2.6-6.3c0.3-0.9,0.8-1.6,1.6-2.1c-2.3-1.6-3.5-4.2-2.7-6.6c1-3,4.7-4.5,8.3-3.3
			c3.6,1.2,5.7,4.6,4.7,7.6c-0.3,0.8-0.7,1.4-1.2,2c3.5,1.6,5.6,4.8,4.7,7.5c-0.2,0.5-0.4,0.9-0.7,1.3c2.2,1.7,3.4,4.2,2.6,6.3
			c-0.3,0.8-0.8,1.5-1.4,2c2.1,1.3,3.3,3.7,2.6,5.8c-0.8,2.6-4,3.8-7,2.8C2323.7,1413.5,2321.9,1410.6,2322.8,1408z"/>
		<g>
			<path class="st12" d="M2230.7,1127.9c5,7.7,3.8,17.3-2.5,21.3c-6.3,4.1-15.5,1.1-20.4-6.7c-5-7.7-3.8-17.3,2.5-21.3
				C2216.6,1117.2,2225.7,1120.2,2230.7,1127.9z"/>
			<g>
				<path class="st13" d="M2220.4,1144.6c0.3,0,0.6-0.1,0.9-0.3c3.9-2.6,5.5-6.4,4.4-10.3c-1.1-4-4.8-6.9-8.8-7c-1.1,0-2,0.9-2,2
					c0,1.1,0.9,2,2,2c2.2,0,4.4,1.8,5,4.1c0.6,2.2-0.3,4.2-2.7,5.8c-0.9,0.6-1.2,1.9-0.6,2.8
					C2218.9,1144.4,2219.6,1144.7,2220.4,1144.6z"/>
			</g>
		</g>
	</g>
	<g>
		<path class="st1" d="M294,1446c19.6,35.8,6.4,80.7-29.4,100.3c-35.8,19.6-80.7,6.4-100.3-29.4c-19.6-35.8-6.4-80.7,29.4-100.3
			C229.5,1397,274.4,1410.2,294,1446z"/>
		<g>
			<path class="st2" d="M252.4,1534l-6.8-12.4c-7.2,3.8-15.7,5.6-21.7,4.9l-1.5-9.8c6,0.5,13.6-0.6,20.5-4.4c8.7-4.7,11.8-13,8-19.9
				c-3.7-6.7-10.7-8.3-21.8-7c-15.2,1.9-25.9,0.5-31.8-10.1c-5.6-10.2-2.5-21.8,7.7-29.8l-6.8-12.4l7.6-4.1l6.5,11.9
				c7.5-3.8,13.6-4.6,18.2-4.4l1.4,9.7c-3.4-0.1-9.9,0-17.7,4.3c-9.4,5.1-9.9,12.7-7.2,17.6c3.5,6.4,9.7,7.1,22.8,5.7
				c15.4-1.8,25.2,1.1,31.2,12c5.3,9.7,3.5,22.4-8,31.4l7,12.7L252.4,1534z"/>
		</g>
	</g>
	<g>
		<path class="st1" d="M2620.7,1220.8c-17.5,36.9-61.6,52.5-98.5,35c-36.9-17.5-52.5-61.6-35-98.5c17.5-36.9,61.6-52.5,98.5-35
			C2622.6,1139.9,2638.2,1184,2620.7,1220.8z"/>
		<g>
			<path class="st2" d="M2525.1,1238.7l6.1-12.7c-7.2-3.6-13.7-9.5-16.6-14.7l7-7c3.1,5.2,8.5,10.7,15.6,14c8.9,4.3,17.4,2,20.8-5.2
				c3.3-6.9,0.4-13.5-7.1-21.7c-10.4-11.1-15.6-20.7-10.4-31.7c5-10.4,16.2-14.8,28.7-11.2l6.1-12.7l7.8,3.7l-5.8,12.2
				c7.4,3.8,11.6,8.3,14.3,12.2l-7.1,6.8c-1.9-2.8-5.8-8-13.8-11.8c-9.7-4.6-16.1-0.6-18.5,4.5c-3.1,6.5,0,12,8.8,21.8
				c10.4,11.5,13.9,21.1,8.5,32.3c-4.7,9.9-16.1,16-30.1,11.9l-6.2,13.1L2525.1,1238.7z"/>
		</g>
	</g>
	<g>
		<path class="st0" d="M2386.4,469.8c16.5,37.4-0.5,81-37.9,97.4c-37.4,16.5-81-0.5-97.4-37.9c-16.5-37.4,0.5-81,37.9-97.4
			C2326.3,415.5,2369.9,432.5,2386.4,469.8z"/>
		<g>
			<path class="st1" d="M2337.5,553.9l-5.7-12.9c-7.5,3.1-16.1,4.2-22,3l-0.7-9.9c5.9,1,13.6,0.5,20.8-2.6c9.1-4,12.9-11.9,9.7-19.2
				c-3.1-7-10-9.2-21.1-8.8c-15.3,0.6-25.9-1.7-30.8-12.8c-4.7-10.6-0.7-21.9,10.2-29l-5.7-12.9l7.9-3.5l5.5,12.4
				c7.8-3.1,13.9-3.4,18.6-2.8l0.5,9.8c-3.4-0.4-9.8-0.9-18,2.7c-9.8,4.3-10.9,11.8-8.7,16.9c2.9,6.6,9.1,7.9,22.2,7.6
				c15.5-0.4,25.1,3.3,30.1,14.6c4.4,10.1,1.6,22.6-10.6,30.6l5.8,13.3L2337.5,553.9z"/>
		</g>
	</g>
	<g>
		<path class="st0" d="M91.7,929.4l48.8-91c0,0,59.5,5.1,86.9,74.1c16.9,42.8,74.4,64.9,74.4,64.9l-49.1,91.5c0,0-75-20.1-93.6-69.3
			C139.5,947.6,91.7,929.4,91.7,929.4z"/>
		<path class="st2" d="M225.4,984.9c-16.2,13.6-42.2,9.3-58-9.6c-15.9-18.9-15.6-45.2,0.6-58.8c16.2-13.6,42.2-9.3,58,9.6
			C241.8,945,241.6,971.3,225.4,984.9z"/>
	</g>
	<g>
		<path class="st0" d="M2027.1,338.5l-68.7-77.1c0,0,25.3-54.1,99.4-56.1c46-1.2,86.6-47.5,86.6-47.5l69,77.5c0,0-44.7,63.6-97.3,64
			C2060.6,299.8,2027.1,338.5,2027.1,338.5z"/>
		<path class="st2" d="M2125.3,232c7.2,19.9-5.8,42.8-28.9,51.2c-23.2,8.4-47.8-0.9-55-20.8c-7.2-19.9,5.8-42.8,28.9-51.2
			C2093.4,202.8,2118.1,212.1,2125.3,232z"/>
	</g>
	<g>
		<path class="st0" d="M2478.3,1495l11.2-83.5c0,0,46.9-13.2,87.6,31.7c25.2,27.8,75.5,28.3,75.5,28.3l-11.3,84
			c0,0-63.1,6.1-91.3-26.1C2520,1495.2,2478.3,1495,2478.3,1495z"/>
		<path class="st2" d="M2596.4,1499.1c-8.5,15-29.5,19.2-47.1,9.3c-17.5-9.9-24.9-30.1-16.4-45.1c8.5-15,29.5-19.2,47.1-9.3
			C2597.5,1463.9,2604.8,1484.1,2596.4,1499.1z"/>
	</g>
	<g>
		<path class="st0" d="M1398.6,725.8l-11.6-86.3c0,0-48.5-13.6-90.4,32.8c-26,28.7-77.9,29.2-77.9,29.2l11.6,86.7
			c0,0,65.2,6.3,94.3-27C1355.5,726,1398.6,725.8,1398.6,725.8z"/>
		<path class="st2" d="M1276.6,730c8.7,15.5,30.5,19.8,48.6,9.6c18.1-10.2,25.7-31,16.9-46.6c-8.7-15.5-30.5-19.8-48.6-9.6
			C1275.5,693.7,1267.9,714.5,1276.6,730z"/>
	</g>
	<g>
		<path class="st2" d="M1067.8,1600.2H631.3c-19.4,0-35.1-15.7-35.1-35.1v-92.3c0-19.4,15.7-35.1,35.1-35.1h436.6
			c19.4,0,35.1,15.7,35.1,35.1v92.3C1103,1584.5,1087.2,1600.2,1067.8,1600.2z"/>
		<g>
			<path class="st20" d="M753.6,1496.1v45.7c0,12.3-10,22.3-22.3,22.3h-86.5c-4.5,0-8.8-1.4-12.3-3.7c-6-4-10-10.8-10-18.6v-45.7
				c0-12.3,10-22.3,22.3-22.3h86.5c5,0,9.7,1.7,13.4,4.5C750.1,1482.3,753.6,1488.8,753.6,1496.1z"/>
			<path class="st3" d="M929.9,1537.5H786.4c-10.3,0-18.6-8.3-18.6-18.6l0,0c0-10.3,8.3-18.6,18.6-18.6h143.5
				c10.3,0,18.6,8.3,18.6,18.6l0,0C948.5,1529.2,940.2,1537.5,929.9,1537.5z"/>
			<path class="st5" d="M1058.1,1537.5h-71.9c-10.3,0-18.6-8.3-18.6-18.6l0,0c0-10.3,8.3-18.6,18.6-18.6h71.9
				c10.3,0,18.6,8.3,18.6,18.6l0,0C1076.7,1529.2,1068.3,1537.5,1058.1,1537.5z"/>
		</g>
		<path class="st11" d="M744.7,1478.2l-112.2,82.2c-6-4-10-10.8-10-18.6v-45.7c0-12.3,10-22.3,22.3-22.3h86.5
			C736.3,1473.7,741,1475.4,744.7,1478.2z"/>
		
			<ellipse transform="matrix(0.9996 -2.937410e-02 2.937410e-02 0.9996 -44.8828 21.5068)" class="st21" cx="709.6" cy="1538.4" rx="15" ry="15"/>
		<path class="st3" d="M742.4,1538.4c0,8.3-6.7,15-15,15c-8.3,0-15-6.7-15-15c0-8.3,6.7-15,15-15
			C735.7,1523.4,742.4,1530.1,742.4,1538.4z"/>
	</g>
	<g>
		<path class="st2" d="M1067.8,1797.2H631.3c-19.4,0-35.1-15.7-35.1-35.1v-92.3c0-19.4,15.7-35.1,35.1-35.1h436.6
			c19.4,0,35.1,15.7,35.1,35.1v92.3C1103,1781.5,1087.2,1797.2,1067.8,1797.2z"/>
		<g>
			<path class="st15" d="M753.6,1693v45.7c0,12.3-10,22.3-22.3,22.3h-86.5c-4.5,0-8.8-1.4-12.3-3.7c-6-4-10-10.8-10-18.6V1693
				c0-12.3,10-22.3,22.3-22.3h86.5c5,0,9.7,1.7,13.4,4.5C750.1,1679.3,753.6,1685.8,753.6,1693z"/>
			<path class="st3" d="M929.9,1734.5H786.4c-10.3,0-18.6-8.3-18.6-18.6l0,0c0-10.3,8.3-18.6,18.6-18.6h143.5
				c10.3,0,18.6,8.3,18.6,18.6l0,0C948.5,1726.2,940.2,1734.5,929.9,1734.5z"/>
			<path class="st5" d="M1058.1,1734.5h-71.9c-10.3,0-18.6-8.3-18.6-18.6l0,0c0-10.3,8.3-18.6,18.6-18.6h71.9
				c10.3,0,18.6,8.3,18.6,18.6l0,0C1076.7,1726.2,1068.3,1734.5,1058.1,1734.5z"/>
		</g>
		<path class="st16" d="M744.7,1675.2l-112.2,82.2c-6-4-10-10.8-10-18.6V1693c0-12.3,10-22.3,22.3-22.3h86.5
			C736.3,1670.7,741,1672.4,744.7,1675.2z"/>
		<path class="st11" d="M724.6,1735.4c0,8.3-6.7,15-15,15c-8.3,0-15-6.7-15-15c0-8.3,6.7-15,15-15
			C717.9,1720.4,724.6,1727.1,724.6,1735.4z"/>
		<path class="st3" d="M742.4,1735.4c0,8.3-6.7,15-15,15c-8.3,0-15-6.7-15-15c0-8.3,6.7-15,15-15
			C735.7,1720.4,742.4,1727.1,742.4,1735.4z"/>
	</g>
</g>
</svg>
