<?xml version="1.0" encoding="utf-8"?>
<!-- Generator: Adobe Illustrator 24.0.2, SVG Export Plug-In . SVG Version: 6.00 Build 0)  -->
<svg version="1.1" id="Layer_1" xmlns="http://www.w3.org/2000/svg" xmlns:xlink="http://www.w3.org/1999/xlink" x="0px" y="0px"
	 viewBox="0 0 404.9 178.5" style="enable-background:new 0 0 404.9 178.5;" xml:space="preserve">
<style type="text/css">
	.st0{fill:#083553;}
	.st1{fill:#F79722;}
	.st2{fill:#FFFFFF;}
	.st3{fill:#073756;}
</style>
<path class="st0" d="M282.3,127.5c-5,0-9.8,0-14.7,0c-0.2-0.3-0.4-0.6-0.5-0.9c-6-11.3-12-22.6-18.1-33.9c-0.3-0.6-0.6-1.2-0.9-1.8
	c-0.3-0.8-0.9-1.3-1.6-1.6c-0.8-0.4-1.4-0.3-1.8,0.4c-0.3,0.5-0.5,1.2-0.7,1.8c-0.1,0.3,0,0.7,0,1c0,11.1,0,22.1,0,33.2
	c0,0.5,0,1,0,1.5c-0.9,0.3-14,0.3-15.3,0.1c0-0.3-0.1-0.7-0.1-1c0-14.3,0-28.6,0-42.9c0-4.4,2-7.8,5.3-10.6c1-0.8,2.2-1.5,3.3-2.2
	c5.6-3.1,12.4-1.5,16.3,2.9c2.3,2.6,4.2,5.5,5.9,8.5c4.8,9,9.5,18.1,14.2,27.1c0.3,0.5,0.6,1.1,0.9,1.7c0.3-0.5,0.5-0.8,0.7-1.1
	c5.3-9.8,10.5-19.6,15.8-29.3c1.3-2.4,2.8-4.6,4.5-6.6c5.6-6.6,16.1-6.4,21.8,0.5c2.4,2.9,3.7,6.2,3.7,10.1c0,18.9,0,22.8,0,41.8
	c0,0.4,0,0.8-0.1,1.2c-5.2,0-10.3,0-15.6,0c0-0.4,0-0.9,0-1.3c0-15.8,0-16.6,0-32.3c0-0.4,0-0.9,0-1.3c0-1.3-0.6-2.3-1.7-2.5
	c-1-0.2-1.9,0.3-2.6,1.5c-1.2,2.4-2.5,4.8-3.7,7.1c-4.8,9.3-9.7,18.6-14.5,27.9C282.7,126.8,282.5,127.1,282.3,127.5z"/>
<path class="st0" d="M328.4,84.3c0-4.8,0-9.3,0-13.8c0.3-0.1,0.5-0.1,0.8-0.2c0.4,0,0.8,0,1.2,0c17.4,0,34.9,0.1,52.3-0.1
	c5.7-0.1,10.1,2.2,13.8,6.3c2.6,3,4.5,6.3,5.2,10.3c0.1,0.6,0.2,1.2,0.2,1.9c0,12.7,0,25.3,0,38c0,0.3,0,0.7-0.1,1.1
	c-5.4,0-10.8,0-16.2,0c0-1.2,0-2.4,0-3.8c-0.4,0.4-0.5,0.5-0.7,0.7c-1.7,1.8-3.7,2.8-6.3,2.8c-14.1-0.1-28.2,0-42.3,0
	c-3.2,0-5.5-1.3-7.2-4c-0.6-0.9-0.9-2-1-3.1c0-0.7-0.1-1.3-0.1-2c-0.1-5.4-0.1-10.8-0.1-16.2c0-1.7,0.2-3.4,0.9-5
	c1.4-3.5,4.2-5.4,7.9-5.4c13.3,0,26.6,0,39.9,0c3.4,0,6.1,1.2,8.3,3.7c0.1,0.1,0.3,0.3,0.4,0.4c0,0,0.1,0,0.2,0c0-1.5,0.1-3,0-4.5
	c0-0.8-0.2-1.7-0.5-2.5c-1.3-2.9-3.4-4.6-6.6-4.7c-0.5,0-1.1,0-1.6,0c-15.6,0-31.2,0-46.7,0C329.5,84.3,329,84.3,328.4,84.3z
	 M362.9,113.5c5.1,0,10.3,0,15.4,0c1.6,0,2.7-0.7,3.5-1.9c0.9-1.3,0.8-2.8-0.3-3.9c-1.1-1.1-2.4-1.8-4-1.8c-9.9,0-19.8,0-29.7,0
	c-0.3,0-0.6,0-0.9,0c-0.6,0.2-1.2,0.4-1.7,0.7c-1.2,1-1.7,3.1-1.1,4.6s1.8,2.3,3.7,2.3C352.8,113.5,357.9,113.5,362.9,113.5z"/>
<path class="st0" d="M88.3,127.5c-5.4,0-10.5,0-15.6,0c-0.3-0.8-0.4-33.5-0.1-35.5c0.5,0,1-0.1,1.5-0.1c15.5,0,31,0,46.5,0
	c1.3,0,2.5-0.2,3.5-1c1.3-1,1.7-2.4,1.5-3.9s-1.1-2.5-2.6-2.8c-0.9-0.2-1.8-0.4-2.7-0.4c-15.3,0-30.7,0-46,0c-0.5,0-1,0-1.6,0
	c0-4.5,0-8.8,0-13.3c0.5,0,1-0.1,1.5-0.1c14.8,0,29.6,0,44.4,0c4.2,0,8.4,0.1,12.6,0c6-0.2,10.5,5.1,10.5,10.4c0,5.1,0,10.2,0,15.3
	c0,2.2-0.5,4.2-1.9,6c-0.9,1.1-1.9,2-3.3,2.3c-1.6,0.4-3.2,0.8-4.9,1.1c-0.7,0.1-1.5,0.2-2.4,0.3c0.3,0.4,0.4,0.6,0.6,0.9
	c5.7,6.6,11.4,13.1,17.1,19.7c5.5,6.3,10.9,12.5,16.4,18.8c0.2,0.3,0.5,0.6,0.9,1.1c-0.7,0-1.1,0-1.5,0c-5.8,0-11.7,0-17.5,0
	c-0.9,0-1.5-0.3-2.1-0.9c-4.3-4.9-8.6-9.8-12.8-14.6c-7-7.9-13.9-15.8-20.8-23.7c-0.7-0.8-1.4-1.1-2.5-1.1c-5.7,0.1-11.4,0-17.1,0
	c-0.4,0-0.8,0-1.4,0C88.3,113,88.3,120.2,88.3,127.5z"/>
<path class="st0" d="M176.2,70.4c0.2,4.8-0.4,9.3-1.9,13.8c-0.7,0-1.3-0.1-1.9,0c-0.9,0.1-1.8,0.2-2.6,0.5c-1.9,0.7-3.4,1.9-4.7,3.5
	c-1,1.2-1.5,2.5-1.5,4.1c0,3.7,0,7.3,0,11c0,2.3,0.6,4.5,1.9,6.5c1.2,1.7,2.7,2.6,4.7,2.8c0.5,0.1,1.1,0.1,1.6,0.1
	c8.6,0,17.3,0,25.9,0c1.2,0,2.4-0.1,3.5-0.6c2.5-1,3.9-2.8,4.3-5.5c0.1-0.6,0.1-1.2,0.1-1.9c0-3.9,0-7.8,0-11.8c0-2.2-0.6-4.1-2-5.8
	c-1.8-2.2-4.2-2.8-6.8-3c-0.9,0-1.7,0-2.6,0c-0.3,0-0.7-0.1-1.2-0.1c3.1-4.4,5.6-8.9,7.4-13.8c2.1,0,4.1-0.2,6.2,0.3
	c5.4,1.3,9.5,4.4,12.4,9.2c1.3,2.2,1.9,4.7,2.1,7.2c0.1,1.3,0.1,2.6,0.1,4c0,6.1,0,12.2,0,18.3c0,7.8-3.9,13.3-10.5,17
	c-1.6,0.9-3.4,1.3-5.3,1.3c-13.3,0-26.7-0.1-40,0c-7.2,0.1-12.2-3.4-15.7-9.5c-1.7-2.9-2.4-6.1-2.4-9.5c0.1-6.6,0.1-13.1,0-19.7
	c-0.1-6.4,2.7-11.4,7.6-15.3c1.8-1.5,3.9-2.6,6.2-3.1c0.7-0.1,1.4-0.2,2.1-0.2c4,0,7.9,0,11.9,0C175.6,70.3,175.9,70.4,176.2,70.4z"
	/>
<path class="st0" d="M64.5,83.8c-0.6,0-1,0-1.5,0c-11.2,0-22.5,0-33.7,0c-3.9,0-7.6,2.5-9,6.2c-0.2,0.6-0.4,1.3-0.4,1.9
	c0,4.5,0,9.1,0,13.6c0,2.9,2.4,6.9,6.7,7.6c0.5,0.1,1.1,0.1,1.6,0.1c11.7,0,23.4,0,35.1,0c0.5,0,0.9,0,1.4,0c0,4.8,0,9.4,0,14.1
	c-0.4,0-0.7,0.1-1,0.1c-14,0-28,0.1-42-0.1c-8.7-0.1-15.8-6-17.5-14.2c-0.2-1.1-0.3-2.3-0.3-3.5c0-7.5,0.1-14.9,0-22.4
	C3.8,83.3,5,80.1,7.4,77.1c2-2.6,4.5-4.6,7.4-6.1c1.3-0.6,2.7-1,4.2-1c14.7,0,29.4,0,44.1,0c0.4,0,0.8,0,1.3,0
	C64.5,74.8,64.5,79.3,64.5,83.8z"/>
<path class="st1" d="M183.5,2c0.3,0.4,0.7,0.8,1,1.2c6.7,8.1,11.8,17.1,14.7,27.3c2,7,2.8,14.2,2.3,21.4c-0.4,6.6-1.6,13.1-4.1,19.3
	c-3.6,9-9.3,16.3-17.5,21.7c-2.1,1.4-4.4,2.6-6.9,3.4c-0.4,0.1-0.7,0.2-1.3,0.4c0.3-0.6,0.5-0.9,0.7-1.3c2.2-4.1,4.1-8.4,5.2-12.9
	c1.7-6.9,1.8-13.7-0.1-20.6c-2.4-8.3-7.8-13.5-16.1-15.7c-0.4-0.1-0.8-0.2-1.4-0.4c0.5-0.3,0.8-0.6,1.1-0.7c2-1,4.1-1.3,6.3-1.1
	c3,0.3,5.7,1.3,8.5,2.3c2,0.7,4,1.4,6,2.1c1.3,0.4,2.6,0.6,4,0.4c1.6-0.2,2.8-1,3.7-2.3c0.8-1.1,1.2-2.3,1.5-3.6
	c0.5-2.3,0.6-4.6,0.5-6.9c-0.2-5.8-1.3-11.4-2.8-17c-1.4-5.4-3.2-10.7-5.4-15.9c-0.1-0.3-0.2-0.6-0.3-1C183.3,2.1,183.4,2,183.5,2z"
	/>
<path class="st1" d="M160.3,27c0-3.7,1.2-7,3.7-9.8c5.2-5.6,13.6-5.6,18.8,0c5.3,5.7,4.8,15-1,20.2c-6.3,5.6-16,3.7-19.9-4
	C160.8,31.5,160.3,29.3,160.3,27z"/>
<rect x="166.8" y="133.1" class="st1" width="235" height="42"/>
<g>
	<path class="st2" d="M199.9,140.9c2.8,2.2,4.6,5.1,5.5,8.9h-8.6c-0.6-1.5-1.6-2.7-2.9-3.6c-1.3-0.9-2.9-1.3-4.7-1.3
		c-2.4,0-4.3,0.8-5.8,2.5s-2.2,4-2.2,6.8s0.7,5.1,2.2,6.8s3.4,2.5,5.8,2.5c1.8,0,3.4-0.4,4.7-1.3c1.3-0.9,2.3-2,2.9-3.5h8.6
		c-0.8,3.7-2.6,6.6-5.5,8.8c-2.8,2.2-6.4,3.3-10.7,3.3c-3.3,0-6.2-0.7-8.6-2.1c-2.5-1.4-4.4-3.4-5.7-5.9c-1.4-2.5-2-5.4-2-8.6
		c0-3.2,0.7-6.1,2-8.6s3.3-4.5,5.7-5.9c2.5-1.4,5.4-2.1,8.6-2.1C193.6,137.6,197.1,138.7,199.9,140.9z"/>
	<path class="st2" d="M235.4,164.6h-12.6l-2.1,6h-8.6l12.4-32.4h9.4l12.4,32.4h-8.7L235.4,164.6z M233.3,158.6l-4.2-12l-4.2,12
		H233.3z"/>
	<path class="st2" d="M291.7,138.2v32.4h-8.2v-20.3l-7.2,20.3h-7.1l-7.3-20.3v20.3h-8.2v-32.4h10l9.1,22.6l8.9-22.6L291.7,138.2
		L291.7,138.2z"/>
	<path class="st2" d="M310.1,159.1v11.5h-8.2V138h13.2c4,0,7.1,1,9.2,2.9s3.1,4.5,3.1,7.8c0,2-0.5,3.8-1.4,5.4s-2.3,2.8-4.2,3.7
		c-1.8,0.9-4.1,1.4-6.7,1.4L310.1,159.1L310.1,159.1z M319.1,148.6c0-2.9-1.6-4.3-4.9-4.3h-4.1v8.5h4.1
		C317.5,152.8,319.1,151.4,319.1,148.6z"/>
	<path class="st2" d="M343.9,137.9v18.8c0,2.2,0.5,3.8,1.5,4.9c1,1.1,2.5,1.7,4.4,1.7s3.4-0.6,4.4-1.7c1-1.1,1.5-2.8,1.5-4.9v-18.8
		h8.2v18.8c0,3.1-0.6,5.7-1.9,7.8c-1.2,2.1-2.9,3.7-5.1,4.8c-2.1,1.1-4.6,1.6-7.3,1.6c-2.7,0-5.1-0.5-7.2-1.6
		c-2.1-1-3.7-2.6-4.9-4.8c-1.2-2.1-1.8-4.7-1.8-7.8v-18.8H343.9z"/>
	<path class="st2" d="M396.6,166.1c-0.9,1.4-2.2,2.6-4,3.5s-3.9,1.3-6.4,1.3c-3.8,0-6.9-0.9-9.3-2.7s-3.8-4.3-4-7.5h8.7
		c0.1,1.2,0.6,2.2,1.4,2.9s1.8,1.1,3,1.1c1.1,0,1.9-0.3,2.5-0.8c0.6-0.6,0.9-1.3,0.9-2.2c0-0.8-0.3-1.5-0.8-2.1
		c-0.6-0.6-1.2-1-2.1-1.4c-0.8-0.4-2-0.8-3.4-1.3c-2.1-0.7-3.9-1.4-5.2-2.1c-1.4-0.7-2.5-1.6-3.5-3s-1.5-3-1.5-5.1
		c0-1.9,0.5-3.6,1.5-5s2.4-2.5,4.2-3.3c1.8-0.8,3.9-1.1,6.2-1.1c3.7,0,6.7,0.9,8.9,2.6c2.2,1.7,3.5,4.1,3.7,7.1h-8.8
		c-0.2-1.1-0.6-1.9-1.2-2.6c-0.7-0.6-1.5-0.9-2.6-0.9c-1,0-1.7,0.2-2.3,0.7c-0.6,0.5-0.9,1.2-0.9,2.2c0,0.8,0.3,1.4,0.8,2
		c0.5,0.5,1.2,1,2,1.3s1.9,0.8,3.4,1.3c2.2,0.7,3.9,1.4,5.3,2.1c1.4,0.7,2.5,1.7,3.5,3s1.5,3.1,1.5,5.2
		C398,163.1,397.5,164.7,396.6,166.1z"/>
</g>
<path class="st3" d="M5.1,133.1h109.3c0.6,0,1.1-0.5,1.1-1.1v-9.4c0-1,1.2-1.5,1.9-0.8l23.7,25.6c0.4,0.4,0.4,1.1,0,1.5l-23.9,24.9
	c-0.7,0.7-1.9,0.2-1.9-0.8v-9.5c0-0.6-0.5-1.1-1.1-1.1H5.2c-0.6,0-1.1-0.5-1.1-1.1v-27C4,133.6,4.5,133.1,5.1,133.1z"/>
</svg>
